/* XPM */
static char *c59b9c26d597449d9e72e4d2ca27bd4boSs086Lq5E6AVwVN[] = {
/* columns rows colors chars-per-pixel */
"40 40 170 2 ",
"   c #3D351F",
".  c #3D2B25",
"X  c #3C2E31",
"o  c #3D3131",
"O  c #451716",
"+  c #5C1F16",
"@  c #651A18",
"#  c #771E1A",
"$  c #4A2A1A",
"%  c #5A231B",
"&  c #4A381C",
"*  c #513516",
"=  c #52331A",
"-  c #5C2420",
";  c #483926",
":  c #40333A",
">  c #652624",
",  c #732928",
"<  c #4E5C0F",
"1  c #4B4B1D",
"2  c #554918",
"3  c #53541D",
"4  c #565B1E",
"5  c #5D691F",
"6  c #5B711C",
"7  c #62631A",
"8  c #494D26",
"9  c #514526",
"0  c #4C5026",
"q  c #545B23",
"w  c #584537",
"e  c #6E4239",
"r  c #576824",
"t  c #5D7D23",
"y  c #657420",
"u  c #68594A",
"i  c #735E55",
"p  c #7F6259",
"a  c #766B65",
"s  c #777373",
"d  c #8F2B1D",
"f  c #90271D",
"g  c #A82519",
"h  c #8D2A24",
"j  c #8C352A",
"k  c #B33727",
"l  c #CA321D",
"z  c #D63213",
"x  c #FF330E",
"c  c #FF3C14",
"v  c #FF371B",
"b  c #FF3D1D",
"n  c #C93421",
"m  c #D63D20",
"M  c #E83622",
"N  c #FF3F22",
"B  c #AB4E3C",
"V  c #FF4114",
"C  c #FF4119",
"Z  c #DD412B",
"A  c #FF4524",
"S  c #FF4E26",
"D  c #FF472C",
"F  c #FD4B28",
"G  c #FF572B",
"H  c #FF522D",
"J  c #FF5633",
"K  c #FF5A35",
"L  c #FF5C3C",
"P  c #FF643C",
"I  c #944A42",
"U  c #825341",
"Y  c #95624D",
"T  c #816455",
"R  c #AF6649",
"E  c #8D7B60",
"W  c #AC6160",
"Q  c #BC6D68",
"!  c #CF5644",
"~  c #E36E46",
"^  c #FF6443",
"/  c #FF6B43",
"(  c #FB694B",
")  c #FF7246",
"_  c #FF754A",
"`  c #FF7A4F",
"'  c #FF7553",
"]  c #FF7E51",
"[  c #FF7C66",
"{  c #2A9600",
"}  c #329D00",
"|  c #389F03",
" . c #35A300",
".. c #3CA403",
"X. c #3EA40D",
"o. c #43A605",
"O. c #43A90D",
"+. c #46AB14",
"@. c #46AA19",
"#. c #49AD1C",
"$. c #4BB210",
"%. c #5D8525",
"&. c #5F952A",
"*. c #648724",
"=. c #659329",
"-. c #639D2C",
";. c #699C2C",
":. c #4CAF22",
">. c #4EB122",
",. c #52B326",
"<. c #54B52B",
"1. c #59B62D",
"2. c #57B82D",
"3. c #5BBB2E",
"4. c #5CB531",
"5. c #5EBC34",
"6. c #5EBC38",
"7. c #61A52A",
"8. c #63AB2D",
"9. c #68AD2C",
"0. c #63B332",
"q. c #60BC35",
"w. c #61BD39",
"e. c #7F8D76",
"r. c #9E9078",
"t. c #A3957C",
"y. c #CE8357",
"u. c #FF8053",
"i. c #FF8C5D",
"p. c #E58C61",
"a. c #FF826A",
"s. c #FF9563",
"d. c #FF9667",
"f. c #FF8874",
"g. c #FF937D",
"h. c #FFA16C",
"j. c #7A8481",
"k. c #8A888A",
"l. c #8C9997",
"z. c #A09A83",
"x. c #B2B18F",
"c. c #B9B28A",
"v. c #A9B2AD",
"b. c #B8BDB9",
"n. c #D38889",
"m. c #DD9B9B",
"M. c #D1A0A0",
"N. c #C8CA9F",
"B. c #D0C594",
"V. c #DBCFA1",
"C. c #DFDCA8",
"Z. c #EDE8A8",
"A. c #F3EBAC",
"S. c #EDE9B6",
"D. c #F4EEB0",
"F. c #F3EDBD",
"G. c #FBF7BB",
"H. c #C1CDC3",
"J. c #CED5C5",
"K. c #DAE1D9",
"L. c #F6EDC2",
"P. c #FAF5C3",
"I. c #EBEED4",
"U. c #F8EED1",
"Y. c #EAF0DE",
"T. c #FDF8D9",
"R. c #EAEFE7",
"E. c #FFFCE5",
"W. c #FEFDED",
"Q. c #FFFFF3",
/* pixels */
"5.5.5.5.5.q.5.5.5.5.5.4.5.6.5.5.5.3.5.5.w.3.w.5.5.5.6.5.6.6.5.6.5.5.5.3.3.5.5.5.",
"5.5.5.5.q.5.5.5.5.5.5.5.5.5.5.5.5.5.5.3.3.3.3.5.6.5.5.5.5.5.5.5.5.5.3.5.3.5.3.5.",
"5.5.5.q.3.5.5.5.5.5.5.5.5.5.5.5.5.5.5.3.5.3.3.5.6.6.6.6.6.5.6.5.5.3.3.3.3.5.3.5.",
"5.6.5.5.w.w.w.w.5.5.5.5.5.5.@.>.5.3.5.5.5.5.w.w.5.5.5.2.X.2.5.5.5.5.q.5.5.5.5.w.",
"6.5.5.w.5.5.w.w.w.5.5.5.} @.+.,.3.5.5.5.5.5.w.5.w.#...$.X.2.5.3.3.q.5.5.5.5.3...",
"5.5.6.5.5.w.5.w.6.5.5.3.{ +.+.2.5.w.5.5.w.5.5.5.5.#. .X.#.3.w.3.w.3.5.5.5.3.3...",
"6.5.6.5.5.6.5.w.q.w.5.3.,.,.2.5.5.5.w.w.5.5.w.5.5.2.2.2.2.3.3.w.3.w.3.w.3.w.5.3.",
"6.5.5.6.5.w.5.5.5.q.3.q.3.q.5.5.w.5.5.5.5.w.3.w.5.5.5.5.5.5.w.3.w.3.5.5.5.3.5.5.",
"5.5.6.5.6.4.6.6.4.5.3.3.3.q.3.5.w.5.q.6.5.6.6.5.6.5.5.6.5.5.5.5.5.3.5.5.3.5.3.5.",
"6.5.5.w.6.6.2.6.5.5.5.5.3.0.0.0.q.w.5.6.6.5.5.6.5.6.5.6.5.5.3.5.5.5.5.5.5.5.w.3.",
"6.5.5.5.4.X.<.<.2.3.7.%.2 * * & 2 7 =.0.6.6.5.5.5.5.5.5.6.5.5.5.3.5.5.5.5.5.5.5.",
"5.6.5.5.6.:.X.X.o.6 $ , W n.m.M.Q f + & t 4.6.5.6.w.5.6.5.5.5.5.5.5.5.5.5.5.5.5.",
"6.5.5.5.3.<.@.o.< > M D a.g.f.[ ^ A K ! , * %.5.5.6.5.5.5.6.5.5.6.5.5.6.5.6.6.5.",
"5.5.3.5.3.3.1.1.O ^ A A K H x x v N F F A n % 4 0.5.6.5.6.5.5.6.5.6.6.5.6.5.5.6.",
"5.5.5.5.5.3.5.7.- K N P P A b J / F b c c F ^ j 3 0.5.5.5.6.6.w.6.6.6.5.5.5.5.5.",
"5.5.5.5.5.5.3.4.$ ) ( ] K b H ) P A N J A b D S h 3 5.w.6.5.5.5.6.5.5.6.5.6.6.5.",
"5.5.5.5.5.5.5.5.3 I s.h./ J ` ` F N L _ J b c V G - *.6.6.6.5.6.5.6.5.5.6.5.w.5.",
"6.6.5.6.6.5.6.5.8.1 e p.] u.h.s.L ^ ] P N A G C C Z $ 9.6.5.5.5.5.5.6.5.5.6.5.6.",
"5.6.6.5.5.6.5.6.5.*.: a U R p.d.` i.h._ J _ ] L A C # y 5.5.6.5.w.5.5.5.5.6.5.5.",
"5.5.5.5.6.5.6.5.%.& z.I.b.k.a T I R y.~ ( d.s.' L C z $ *.0.5.6.5.6.5.5.6.5.5.6.",
"6.5.5.6.5.5.6.5.4 o x.E.Q.W.Y.J.v.l.j.a i p Y B ! F C l @ = ;.w.6.5.6.5.5.w.6.5.",
"5.6.6.5.6.5.5.6.0.r u T.E.E.W.W.Q.Q.W.R.K.H.v.l.s e l C m g = 0.5.5.w.5.6.5.5.5.",
"5.6.5.5.5.6.5.5.6.6.0 t.G.T.W.W.W.W.W.W.Q.Q.Q.E.L.e.d C k , O 9.w.5.6.5.5.6.w.5.",
"5.6.5.5.6.2.5.6.5.w.=.; a C.P.E.E.W.W.W.W.E.E.L.S.x.d c l ; 5 0.6.5.5.w.5.5.6.5.",
"5.5.5.3.4.X.:.<.<.5.5.-.r w c.c.V.P.L.U.T.F.D.D.Z.N.e c g r 5.6.5.w.5.5.6.5.5.6.",
"5.5.5.5.6.:.X.X.O.q.6.w.w.  . ; ; E B.A.F.Z.Z.A.Z.r.X g @ =.6.5.5.6.6.5.5.6.5.6.",
"5.5.5.5.5.,.+.O.$.3.w.w.5.;.-.4.;.q ; u r.t.t.r.w 8 8 . r 0.5.5.w.5.5.w.5.6.5.5.",
"5.3.3.5.5.3.3.3.3.3.q.5.5.6.5.5.5.6.8.t q q 9 4 &.2.5.5.6.6.5.6.5.5.w.5.6.5.5.6.",
"q.3.5.3.3.5.5.5.5.5.3.3.5.5.5.5.5.5.q.3.3.q.0.5.5.5.5.5.6.5.6.5.5.5.5.5.w.5.5.w.",
"3.3.3.3.3.5.5.5.5.5.3.3.5.6.5.5.5.5.3.q.5.3.3.3.5.5.5.5.5.5.5.6.5.5.5.w.5.5.w.5.",
"3.3.3.5.3.3.5.w.5.5.5.5.w.q.2.1.3.q.q.3.3.5.5.5.5.5.5.5.<.5.5.5.5.5.5.5.5.5.5.5.",
"$.o.3.5.5.5.5.5.3.5.5.5.>.,.X.>.3.3.q.q.5.5.5.5.5.,.>.>.| <.3.5.5.3.5.5.5.5.5.5.",
" .,.5.3.5.5.5.5.5.5.5.5.{ +.X.>.5.5.3.5.5.q.5.5.5.+. .@.X.5.5.5.5.5.3.5.5.5.5.5.",
"#.5.3.5.3.5.5.5.5.5.5.3.#.>.,.3.5.3.5.5.q.3.5.5.5.,.,.<.>.3.5.2.2.5.3.5.3.5.3.5.",
"5.4.3.5.3.5.5.5.3.5.5.5.5.5.5.5.5.5.5.5.5.5.q.w.5.5.5.5.3.5.3.5.3.5.5.5.5.5.5.6.",
"5.3.5.3.5.5.3.5.5.5.3.5.5.5.5.5.5.5.5.5.5.5.w.5.5.q.q.3.5.5.5.5.5.4.3.5.5.5.5.5.",
"5.2.5.5.2.5.6.5.5.q.5.5.5.5.3.5.5.5.5.w.5.6.5.5.6.5.q.5.5.5.5.3.3.2.6.5.5.5.5.6.",
"6.6.5.5.5.,.2.5.5.5.3.5.5.5.5.5.5.3.5.5.5.5.6.6.6.6.5.5.5.5.5.5.<.2.2.5.5.5.5.5.",
"2.6.5.2.2.X.@.>.,.3.3.5.5.3.3.5.5.5.q.5.6.5.5.w.6.6.5.5.3.5.5.5.:.X.:.,.2.5.5.6.",
"6.6.6.5.5.>.X.} ..5.5.5.5.5.5.5.5.5.5.5.5.6.w.q.5.5.6.5.q.q.5.5.6.X.}  .$.5.6.6."
};
