/* XPM */
static char *ea73c1a67f3b438db08e6e8a1dbbd6082QnMnyOH9bDOAduk[] = {
/* columns rows colors chars-per-pixel */
"40 40 179 2 ",
"   c #3B1428",
".  c #3C2723",
"X  c #3E2D22",
"o  c #3C322F",
"O  c #3D3031",
"+  c #4E1B34",
"@  c #482728",
"#  c #4D2A29",
"$  c #53272D",
"%  c #4A3129",
"&  c #58372A",
"*  c #553C2C",
"=  c #4E2731",
"-  c #543733",
";  c #58421D",
":  c #4C4729",
">  c #55432A",
",  c #5C452C",
"<  c #59562E",
"1  c #5D5030",
"2  c #65592C",
"3  c #694A31",
"4  c #6F5934",
"5  c #587730",
"6  c #686931",
"7  c #706A34",
"8  c #687330",
"9  c #707335",
"0  c #777C37",
"q  c #551A45",
"w  c #581A43",
"e  c #591650",
"r  c #5A244C",
"t  c #5D3E42",
"y  c #5C2254",
"u  c #67295A",
"i  c #6D395E",
"p  c #6B1963",
"a  c #5D2869",
"s  c #7D2479",
"d  c #703F71",
"f  c #6E4B4E",
"g  c #78566E",
"h  c #766874",
"j  c #747274",
"k  c #811B7A",
"l  c #862D78",
"z  c #864C77",
"x  c #95606E",
"c  c #9F6977",
"v  c #8D7772",
"b  c #2A9600",
"n  c #329D00",
"m  c #35A300",
"M  c #3CA403",
"N  c #3DA40D",
"B  c #489C08",
"V  c #46AC07",
"C  c #43A30B",
"Z  c #43A90D",
"A  c #46AB14",
"S  c #46AA19",
"D  c #49AD1C",
"F  c #4BB210",
"G  c #688735",
"H  c #798C3B",
"J  c #6A9535",
"K  c #71903C",
"L  c #749D39",
"P  c #4CAF22",
"I  c #4EB122",
"U  c #52B326",
"Y  c #54B52B",
"T  c #58B72D",
"R  c #57B82D",
"E  c #5BBB2E",
"W  c #5CB532",
"Q  c #5EBC34",
"!  c #5EBC38",
"~  c #65AB35",
"^  c #6EA539",
"/  c #6BAB39",
"(  c #62B736",
")  c #60BC36",
"_  c #65B239",
"`  c #69B439",
"'  c #61BD39",
"]  c #80817B",
"[  c #7E2681",
"{  c #841D87",
"}  c #961793",
"|  c #9D279F",
" . c #A13C9A",
".. c #B41DB2",
"X. c #AF21B3",
"o. c #BF22BE",
"O. c #C015BC",
"+. c #C13FB5",
"@. c #8D4489",
"#. c #9B4E8A",
"$. c #AF4798",
"%. c #A15F9C",
"&. c #A67884",
"*. c #AD7C89",
"=. c #B44DA3",
"-. c #BD44BA",
";. c #B667AD",
":. c #D65AB5",
">. c #C828C7",
",. c #E32BDF",
"<. c #E818EB",
"1. c #E911F3",
"2. c #EB1CF4",
"3. c #F31AF5",
"4. c #F816F8",
"5. c #FB1CFD",
"6. c #E926EF",
"7. c #EB23F2",
"8. c #F425F3",
"9. c #F32BF1",
"0. c #FB2BF5",
"q. c #F728FA",
"w. c #FB33F5",
"e. c #FD3EF6",
"r. c #F531FD",
"t. c #FD35F9",
"y. c #FF3CFF",
"u. c #E347CB",
"i. c #ED4EDF",
"p. c #EB63C9",
"a. c #ED62D0",
"s. c #F249EF",
"d. c #FC45F4",
"f. c #FF44F9",
"g. c #FE4BFB",
"h. c #FF52F5",
"j. c #FF53FB",
"k. c #FF5EFD",
"l. c #FF65E6",
"z. c #FF6DF7",
"x. c #FE65FB",
"c. c #FF6DFD",
"v. c #FE75FC",
"b. c #FF7EFE",
"n. c #8D908A",
"m. c #909891",
"M. c #A9848A",
"N. c #B0898D",
"B. c #ACABA3",
"V. c #B1B1AA",
"C. c #B9B9B7",
"Z. c #C18393",
"A. c #C88FA0",
"S. c #C997A6",
"D. c #DF95AB",
"F. c #D7A1AB",
"G. c #ECA7BA",
"H. c #FFAABE",
"J. c #C7C4BD",
"K. c #C488C3",
"L. c #CC9DCA",
"P. c #FFAAC1",
"I. c #FFAFC8",
"U. c #FEB3CB",
"Y. c #FEB6CA",
"T. c #FFBDD2",
"R. c #DFDBD7",
"E. c #FFC3D5",
"W. c #FFC3DB",
"Q. c #F5D5DD",
"!. c #FFD5E5",
"~. c #FADCE2",
"^. c #FFDDEA",
"/. c #EFEAE8",
"(. c #FFE5F1",
"). c #FFEDF4",
"_. c #FFEFF8",
"`. c #FFF0F6",
"'. c #FFF3FB",
/* pixels */
"Q Q Q Q Q ) ) Q Q Q Q Q Q ! Q Q Q Q Q Q Q Q Q Q Q Q Q ! Q Q ! Q Q Q E E E Q Q Q ",
"Q Q Q Q E ) ) Q Q Q Q Q Q Q Q Q Q E Q E E Q E Q Q Q Q ! ! Q Q ! Q Q Q E E Q E Q ",
"Q Q Q ) Q ' Q Q Q Q Q Q Q Q Q Q Q E E Q Q Q E Q Q Q Q ! Q Q Q ! Q Q E E Q E Q Q ",
"Q ! Q Q Q ' ' Q Q Q Q Q Q Q S I Q E ) Q Q Q Q Q Q ! ! R N R Q Q Q Q Q ' Q Q Q Q ",
"! Q Q Q Q ' ' ' ' Q Q R n S A U Q E Q Q Q ' ' Q ' D M N N Q Q Q ' E ' E Q E E M ",
"Q Q Q Q Q ' ' Q ' Q Q Q b A A R Q ' ' Q ' E E ' ' F m F N Q E Q E ' E ' Q Q E m ",
"' Q Q ' ' ' Q Q Q ) ) Q U U R Q Q Q ' Q Q ' Q ' Q R R R R E Q Q ' E Q Q Q E Q R ",
"! Q Q ' Q Q Q Q ) Q E E E ) Q Q Q Q ' Q Q Q ' ' Q ' Q Q Q Q Q Q E ' E Q Q Q Q Q ",
"Q Q ! Q ! W ! Q Q E E E E Q Q ) Q Q Q Q ! Q Q ! ' Q Q ! Q ! Q Q Q Q E Q ' E Q Q ",
"Q ! ' ! ! W W Q Q Q Q Q W ~ W W Q Q ! ! ! ! Q Q Q Q Q ' Q ! Q R Q E Q Q E ' E Q ",
"! Q Q Q ! N Y T R Q J 8 & $ # @ & 3 0 _ ' Q Q ) Q ' Q Q ' Q Q Q Q Q Q Q E ' E Q ",
"Q ! Q ! ! P N M B 2 @ u %.K.L.L.;.k q # 6 ~ ) ) Q Q Q ! Q Q Q Q Q Q Q Q ' E ' ' ",
"Q Q Q E Q Y D C ; y >.r.x.b.z.z.f.q.y.+.u # 8 ( Q Q ! Q Q Q Q ! Q ! ! Q ! Q Q ! ",
"Q Q Q E Q R Q H   s.q.7.t.0.1.1.2.2.8.0.q.X.w , ~ ' Q ! Q Q ' Q ! Q ! ! Q ! Q Q ",
"! Q E Q Q Q Q 0 w y.7.f.f.7.2.t.f.9.6.<.1.q.d.l * / ! ! Q ! Q Q ! Q Q ! ! Q Q ! ",
"Q Q Q Q Q E E H + g.g.h.w.7.t.f.f.7.7.w.9.7.q.0.s * _ Q ! Q Q ! Q ! Q Q Q ' Q ! ",
"' Q Q Q Q Q Q ` > l x.v.f.w.g.j.6.6.e.g.w.2.3.4.w.r 8 ! ! Q ! Q ! Q ! ! Q ! ! Q ",
"Q Q ! Q ! ! Q ! ^ * i a.h.j.z.x.e.f.h.f.2.q.w.3.4.>.# L ! ! Q ! Q Q Q Q ' Q Q Q ",
"! Q Q ! Q Q Q Q Q 7 o h z =.p.l.h.k.c.g.t.g.h.d.6.5.p 4 Q Q ! Q Q ! Q Q Q Q Q ! ",
"' Q Q ! Q ! ! Q 9 % &.Q.C.n.h x @.$.:.u.i.z.x.j.f.5.O.= 9 ^ ! ! ! Q ! ! Q ! ! Q ",
"Q Q ! Q Q ! W Q , o S.(.'.`.~.J.V.n.] h g z #. .-.,.3.X.e # H ! Q ! Q Q ! Q Q ! ",
"! Q Q ' ! ! Q Q _ < f ~.(.`.`.).'.'.)./.R.J.B.m.j i X.5.o.} = ^ Q ' Q ! Q Q ! Q ",
"Q Q ! Q ! ! Q ! ! ) , *.E.~.).`._.`._._.`.'.'.(.E.v [ 4.| a   L ! Q Q ! ! Q Q ! ",
"! ! Q Q Q Y ! Q W ) G % x G.E.^.(.)._._.`.).(.E.U.M.[ 4...% 3 _ Q ! Q Q ! Q Q ! ",
"Q Q E Q Q N U Y R Q Q J 1 t Z.A.G.W.W.!.^.E.T.Y.U.F.d 4.} 1 ! Q ' Q ' ! Q ' ! Q ",
"Q Q Q Q W P m N Z Q ' ! ! X X % % x D.I.T.H.H.I.P.*.O { q G Q ! Q Q Q Q Q Q Q Q ",
"Q Q Q Q Q U S V F E ) ) Q K J W J < # f &.N.Z.c - : : . < W Q ! Q ' ' Q Q Q Q Q ",
"E Q E Q R Q Q E E E ) ) ! Q ! Q Q Q L 5 , & & , G ! ! ) ' Q ! Q ' Q Q ' Q Q ! ' ",
"E Q E E E Q Q Q E ) E E Q Q Q Q Q R Q E ) E E ) Q ! Q Q ! Q ! Q ) Q Q Q ' Q Q Q ",
"Q E Q E Q Q Q Q Q Q E E ! Q ' ) Q Q Q E E E E ) Q Q Q Q ! ! ! Q Q ) ' Q Q Q ' Q ",
"E E E E E Q Q ' Q Q Q Q ' ) R R E ) ) E Q Q Q Q Q Q Q Q Y Q Q Q Q E Q Q Q Q Q Q ",
"F V E Q Q E Q Q Q Q Q Q D U N D Q E Q ) Q E Q Q Q U I I m Y E Q ) E Q Q Q Q Q Q ",
"m U Q Q Q Q Q Q Q Q Q E b A N U E Q Q ) Q Q Q Q Q A m S N Q Q Q Q Q E Q E Q Q Q ",
"D E E E E Q E Q Q Q Q E D I U R Q Q Q E ) E Q Q ' U I Y I E Q R R Q E Q Q Q Q Q ",
"Q R W Q Q Q Q Q Q Q E Q Q Q Q Q Q Q Q Q Q ) ' Q Q Q Q Q E Q E Q Q E Q Q Q Q Q Q ",
"Q Q Q E E Q Q Q Q Q Q Q Q Q Q Q ) Q Q Q Q Q Q Q Q Q Q Q Q Q Q E Q Q E Q Q Q Q Q ",
"Q Q Q R Q Q Q ! Q ) Q ) Q Q E Q E Q Q Q Q ! ' ! ! Q Q Q Q Q Q Q R Q Q Q Q Q Q ! ",
"Q Q ! R Q I R Q Q E Q E Q Q Q Q Q Q Q ) ! Q Q ! ! ! Q Q Q Q E Q Y Y Q Q E Q Q ! ",
"Q R ! Q Q N N P U E E ) Q E E Q Q Q Q Q Q Q Q ' ! ' Q Q Q Q Q Q P N Y U R ! Q Q ",
"Q ! ! Q Q P N m M Q ) Q Q Q Q Q Q Q Q Q Q ' Q Q Q Q ! Q Q Q Q ) Q m b m F Q ! ! "
};
