/* XPM */
static char *_ea9ef492ffc4c3ebd41dc5bce98f420x0ktZEJJYs7pLWLa[] = {
/* columns rows colors chars-per-pixel */
"40 40 146 2 ",
"   c #010202",
".  c #050A05",
"X  c #0A0D07",
"o  c #070909",
"O  c #0B0B0C",
"+  c #071007",
"@  c #0D1E06",
"#  c #0E180D",
"$  c #10170D",
"%  c #131D0E",
"&  c #0F1111",
"*  c #121212",
"=  c #1B1C1C",
"-  c #162212",
";  c #1B2317",
":  c #1E2A19",
">  c #222C1D",
",  c #22321B",
"<  c #26381E",
"1  c #1E2020",
"2  c #232323",
"3  c #212823",
"4  c #2A2A2A",
"5  c #263121",
"6  c #293623",
"7  c #293A21",
"8  c #333333",
"9  c #383837",
"0  c #3B3B3B",
"q  c #423F3F",
"w  c #224415",
"e  c #214A15",
"r  c #275615",
"t  c #2D5B19",
"y  c #2F661B",
"u  c #356D1A",
"i  c #3A771E",
"p  c #2F4623",
"a  c #33422C",
"s  c #3A4A32",
"d  c #3C7A21",
"f  c #487036",
"g  c #4D733D",
"h  c #4F7F3A",
"j  c #434343",
"k  c #484648",
"l  c #4B4B4B",
"z  c #555151",
"x  c #5D5D5D",
"c  c #625E5F",
"v  c #567547",
"b  c #597D46",
"n  c #59764B",
"m  c #5E7E50",
"M  c #617F52",
"N  c #646464",
"B  c #686667",
"V  c #6B6C6B",
"C  c #706E6E",
"Z  c #737474",
"A  c #7A7A7A",
"S  c #2B9700",
"D  c #329D00",
"F  c #389F03",
"G  c #35A300",
"H  c #3BA403",
"J  c #3EA40C",
"K  c #46AC07",
"L  c #46AC14",
"P  c #49AE12",
"I  c #46AA19",
"U  c #49AE1B",
"Y  c #4BB210",
"T  c #468829",
"R  c #4D9C2E",
"E  c #4B8730",
"W  c #539F33",
"Q  c #4DAF22",
"!  c #4EB122",
"~  c #52B325",
"^  c #54B42B",
"/  c #58B72D",
"(  c #57B82D",
")  c #5BBB2E",
"_  c #56AD32",
"`  c #5CAC3A",
"'  c #5BB435",
"]  c #5EBC34",
"[  c #5EBC38",
"{  c #60AD3C",
"}  c #60BE36",
"|  c #60BC39",
" . c #588944",
".. c #5E814D",
"X. c #5E9046",
"o. c #5D9942",
"O. c #618B4D",
"+. c #63914D",
"@. c #628452",
"#. c #678C55",
"$. c #688E56",
"%. c #679253",
"&. c #6B9257",
"*. c #6C9559",
"=. c #6F9A5A",
"-. c #709F5B",
";. c #5FA940",
":. c #60A240",
">. c #65B642",
",. c #69BD45",
"<. c #6DBC4B",
"1. c #70AD56",
"2. c #72A85A",
"3. c #73BA54",
"4. c #76B15B",
"5. c #798676",
"6. c #7E817F",
"7. c #7E8480",
"8. c #838383",
"9. c #848B83",
"0. c #8B8C86",
"q. c #878B88",
"w. c #8A8C8B",
"e. c #918F8C",
"r. c #8E8E90",
"t. c #959494",
"y. c #999997",
"u. c #9C9C9B",
"i. c #9E9EA0",
"p. c #A3A3A3",
"a. c #A8A7A8",
"s. c #A6ACA9",
"d. c #ABACAC",
"f. c #AFB1AF",
"g. c #AFB1B1",
"h. c #B2B3B2",
"j. c #B4B4B4",
"k. c #B7B6B6",
"l. c #B9B9B9",
"z. c #BBBBBB",
"x. c #C5C5C5",
"c. c #CBCBCB",
"v. c gray83",
"b. c gray85",
"n. c gray90",
"m. c #ECECEC",
/* pixels */
"] ] ] ] ) } ] ] ] ) ] ' } ] } ] ) } ] ] [ [ ' [ ' ] ] [ ] ] [ ] ] ' ) ) ) ' ) ] ",
"] ] ] ] } } } ] ] ] ] ] ] ] ] ] } ) ) ] ( w e ^ ] ] } ' [ ] [ } ] ] ] ) ) ] ] ] ",
"] ] ] ] ] ] ] ] ] ] ] ] ] ] ] ] ] ] ) ( 7 : 7 - ] ] [ [ ] ] ] ] ' ] ) ] ) ] ) ] ",
"] [ } ] ] } ] } ] ] ] ] } } L ! ] ] ] : 7 b.r.  2.[ [ ( J ( ] ] ] ] } ) ] ] ] } ",
"[ ] ] [ ] } [ } } [ ] ' D I L ~ ) )  .X u.v.k   =.U H P J ( ) ] ] ) } } } } ) H ",
"] ] [ ] } ] } [ ] [ ] ) S I I / } ,.+ Z l.V O #.] L H K U ] ] ) } ) } ) ) ) ) H ",
"[ } ] [ [ [ [ } ] } } ] ! ~ / ] }  .  v.e.; 6 <.[ ( ^ ( ( ) ] ) ) } ] } } ) ) ( ",
"] ] ] [ ] ] ] [ } ] ) ) ) } ] ] } < = n.8 8 s [ [ ] ] ] ] ] } } } } ) ) } } ] ] ",
"[ ] ] [ [ ] ] ] ] ] ) ) ) } ] ] ] + 9 m.* 5 =.} ] [ ] [ ] ] ] ] ) ) } } ] ] ] ] ",
"] [ [ ] [ ' ' ] ] ] ) ) ) ) ] } ] o 0 m.  @.[ ] ] ] ] [ ] ] ] ] ] ] ] ) } ] ] ] ",
"[ ] ] ] ' J ^ ( ( ] } ] [ ] } [ _ # j c.  *.] ] [ [ ] ] ] ] ] ] ] ] ) ] ) ) } ] ",
"] [ ] ] [ Q J H H ] ] ] [ [ [ [ R - j i.* O.{ } } ] ] [ ] ] ] ] ] ] } ] } ] ] ] ",
"] ] ] ) ] ~ I J G ) [ ( ' ;.` ` E ; 9 Z     o.` ' [ ] ] ] [ ] ] ] ] [ ] [ ] } ] ",
"] ] ] ) ] ] ( ( ] ) ( ' ;.X.        l C B       :.[ [ [ ] ] ] [ [ } ] [ ] ] [ [ ",
"] ] ] ] ] ) ] ] ] ) ' o. .    7.0.w.t.u.u.e.9.5.  :.] ] [ ] [ ] [ ] ] [ [ ] ] ] ",
"[ ] ] ] ) ] ] ) ] ) '  .    y.p.s.h.h.h.h.d.p.y.    [ [ ] } ] [ ] ] [ ] ] [ [ ] ",
"[ ] ] ] ] ] ] ] ] ] ` @.  u.s.d.h.h.h.j.h.j.j.a.r.  >.[ [ ] ] [ ] [ ] [ ] ] ] [ ",
"] ] [ ] ] [ ] [ ] ' W     a.h.h.h.h.h.h.h.j.j.g.i.  ..[ ] [ ] ] ] [ [ ] [ } [ ] ",
"[ ] ] [ [ ] [ ] ] ' T   A d.g.h.h.h.h.j.h.h.h.a.i.z * 3.[ ] ] ] [ ] ] [ ] ] [ ] ",
"] [ ] [ ] [ ] ] ] ] t 3 V u.g.j.h.j.h.h.h.j.a.q.Z x . #.] [ ] ] ] ] [ } [ ] ] [ ",
"] [ ] [ ] [ ] [ ] ] e ; 9 N y.g.h.j.h.h.j.j.q.8 0 1   @.] [ ] ] ] [ ] ] [ ] [ ] ",
"[ ] ] ] ] [ [ ] ] [ r 7 * 1 x p.g.l.l.l.l.d.= l 1 1   @.[ ] ] [ [ ] [ ] ] [ ] } ",
"] [ | [ [ ' [ ] [ ' y : 4 0 & l V N Z V x 0 z 1 z 8.* n ] [ [ ] } ] ] ] ] } [ ] ",
"[ ] ] ] ] ( ] ' [ [ d 5 B j.k o . o . . o 1 8 9 g.z.8 n } } ] [ [ ] [ [ ] [ ] [ ",
"] ] ] ] ] J ! ^ ) ] d a N s.d.j.h.d.a.i.t.A A u.p.l 2 m [ [ [ ] } ] ] [ ] [ ] ] ",
"] ] ] [ ] Q J J K } d @ = = 2 u.h.f.f.h.h.h.j.B . 4 = $.} [ ] [ [ ] [ ] ] } [ ] ",
") ] ] ) ] ~ L K K ) f w z C y.j.l.h.h.h.h.j.x.z.y.t.9 =.[ | [ ] ] [ [ ] ] [ ] } ",
") ] ) ] ] ] ) ) ) ) i p 7.g.t.= A f.h.h.f.p.x 8 8.l.j *.[ } ] [ ] [ ] ] [ ] ] [ ",
") } } ) ) ] ] ] } ] u , A a.*   = u.a.h.j.8.    0 x.q -.[ c c ] ] ] ] [ ] [ ] ] ",
") ) ) ) ) ] ] x c c c % C i.q 4 c p.d.d.z.d.q * V z.c c c ' ] ] ] ] } ] ] ] ] ] ",
") ~ ) ) ] ] ] } ] ) t c c c c p.x.x.2   u.c.c.i.z z z z z z z ] ) } ] ] } ] ] } ",
"Y K ) ] ] ] j s q } t q q j q Z f.x.= o A x.u.Z z A   %.H ( z ] } ] ) ] ] ] ] ] ",
"D ~ ] ] ) ] ] ] ] s q > 9 Z Z q Z x z x Z Z N 4 Z B   b J ' ] ) ] ] ) ] ] ] ) ] ",
"Q ) ) ' ] ] ] ] [ [ i   O z l k O * X .   o * 9 q.x   v ~ ) ) ] ( ] ] ] ] ] ] } ",
") ] ' ) ( ] ] ] ] ] ) O.$ 0 V 3 $ &.$.#.$.=.> 9 8.4 : 4.) ] ' ] ] ) ) ] ) } ] ] ",
"] ] ) ] ] ] ) ] ] ] } } f * p.o X ] } ] } [ > 9 x.O h ] ] ] ) ) ] ] ) ] ] ] ] [ ",
"] ] ] ] ( ] ] [ } ) ) } g O p.* % } } [ [ [ : 0 V   1.] ] ] ) ] ) ] ] ] ] ] ] ] ",
"] ) ] ] ] ! ( ] ] ' } ) +.. O   7 } } [ [ | >   2 a 4.] } ] ] ] ^ ^ ( ] ] ] } [ ",
"' ] ] ) ] J J ^ ! } } } } | ,.<.,.} } } ] ] ,.<.<.,.[ ] ) ] ] } U J ^ ^ ( ] ] ] ",
"] [ ] ] ] ! J G F } ) } } } } ' ) ] ] ) ] [ } ] ] ] ] ] } ] ] ] [ G S G Y ] [ [ "
};
