/* XPM */
static char *_ccbecf6e5ef4919cee85b102c6fbd9bCQOaWixvBujNA7Em[] = {
/* columns rows colors chars-per-pixel */
"40 40 208 2 ",
"   c #110C1D",
".  c #250506",
"X  c #331B11",
"o  c #32291E",
"O  c #39371F",
"+  c #0C1629",
"@  c #011B2E",
"#  c #181E2C",
"$  c #291B2B",
"%  c #002B3C",
"&  c #092839",
"*  c #162733",
"=  c #162C3C",
"-  c #192939",
";  c #07353F",
":  c #11303F",
">  c #1C323B",
",  c #26383B",
"<  c #35373B",
"1  c #55080F",
"2  c #46161B",
"3  c #532418",
"4  c #5F1921",
"5  c #4F2B2C",
"6  c #563639",
"7  c #6B2A30",
"8  c #663233",
"9  c #3E421A",
"0  c #104E35",
"q  c #334E32",
"w  c #444419",
"e  c #534C34",
"r  c #5C5739",
"t  c #69562E",
"y  c #536D32",
"u  c #407A3A",
"i  c #55793C",
"p  c #67713C",
"a  c #053545",
"s  c #163141",
"d  c #1C3343",
"f  c #003D52",
"g  c #213645",
"h  c #243847",
"j  c #004352",
"k  c #004D5C",
"l  c #1E4F5B",
"z  c #27434A",
"x  c #334B45",
"c  c #365C4C",
"v  c #354855",
"b  c #005564",
"n  c #005669",
"m  c #005C6C",
"M  c #1C5E66",
"N  c #00636F",
"B  c #006471",
"V  c #006D76",
"C  c #00707C",
"Z  c #5A454B",
"A  c #664649",
"S  c #69585A",
"D  c #78585C",
"F  c #48644D",
"G  c #587542",
"H  c #5B7F44",
"J  c #536E58",
"K  c #577455",
"L  c #716741",
"P  c #455D65",
"I  c #645A62",
"U  c #695B64",
"Y  c #5A6C74",
"T  c #6C626B",
"R  c #746568",
"E  c #676775",
"W  c #6A6775",
"Q  c #6A6A78",
"!  c #767379",
"~  c #881C2E",
"^  c #8C2B31",
"/  c #874339",
"(  c #2B9700",
")  c #329D00",
"_  c #389F06",
"`  c #35A300",
"'  c #3CA403",
"]  c #3EA40C",
"[  c #41A616",
"{  c #46AA19",
"}  c #47AB19",
"|  c #4BB210",
" . c #478539",
".. c #58863E",
"X. c #4CAF21",
"o. c #4FB123",
"O. c #52B325",
"+. c #54B42A",
"@. c #58B72D",
"#. c #57B82D",
"$. c #5BBB2E",
"%. c #59A738",
"&. c #5AB533",
"*. c #5EBC34",
"=. c #5CB138",
"-. c #5EBC38",
";. c #60BD36",
":. c #62B43E",
">. c #62BB3B",
",. c #5E8E47",
"<. c #638B45",
"1. c #65954A",
"2. c #649A49",
"3. c #628658",
"4. c #6C9D50",
"5. c #689658",
"6. c #719C56",
"7. c #71935D",
"8. c #719E5C",
"9. c #5FA340",
"0. c #68A54A",
"q. c #68B544",
"w. c #66BA42",
"e. c #6ABB45",
"r. c #6BB34A",
"t. c #6DBB4A",
"y. c #71BA4D",
"u. c #6EA953",
"i. c #6EA15D",
"p. c #75AB56",
"a. c #72A25C",
"s. c #77A95A",
"d. c #74B256",
"f. c #73B952",
"g. c #538161",
"h. c #709960",
"j. c #7AA563",
"k. c #006D80",
"l. c #007881",
"z. c #007C8D",
"x. c #007E90",
"c. c #0E8389",
"v. c #008494",
"b. c #008997",
"n. c #2F8389",
"m. c #008EA2",
"M. c #0092A5",
"N. c #0096AB",
"B. c #009BAE",
"V. c #009CB1",
"C. c #00ABBE",
"Z. c #579398",
"A. c #6C979C",
"S. c #789698",
"D. c #6F9DA2",
"F. c #00AFC3",
"G. c #00B3C5",
"H. c #00B9C6",
"J. c #00B5CB",
"K. c #00BBCB",
"L. c #00C7DD",
"P. c #8B8B8E",
"I. c #879193",
"U. c #9C9998",
"Y. c #A39D9C",
"T. c #A5A09F",
"R. c #95A8AA",
"E. c #94AAAD",
"W. c #A5A2A1",
"Q. c #ABA9AA",
"!. c #B5AEAC",
"~. c #A4ADB5",
"^. c #A5B2B9",
"/. c #ADB5BC",
"(. c #ABBBBB",
"). c #B4B7B8",
"_. c #BBBCBB",
"`. c #C3B7B7",
"'. c #B5C0BF",
"]. c #B7C1C8",
"[. c #C6C5C5",
"{. c #C4CBCB",
"}. c #D3C9C8",
"|. c #CCD2D8",
" X c #D6D5D5",
".X c #DAD4D4",
"XX c #D6D9DB",
"oX c #DCDCDC",
"OX c #E5DCDA",
"+X c #E1E1DE",
"@X c #C9D7E3",
"#X c #CAD8E3",
"$X c #CFDDE9",
"%X c #D1DCE4",
"&X c #D9DDE2",
"*X c #D0DEEA",
"=X c #E0DFE0",
"-X c #D7E1E7",
";X c #DEE1E3",
":X c #D4E2ED",
">X c #DBE3EA",
",X c #D4E4F2",
"<X c #D8E5F0",
"1X c #DDE9F3",
"2X c #E5E3E3",
"3X c #E9E5E3",
"4X c #E4EEF6",
"5X c #E2EFF9",
/* pixels */
"*.*.*.*.;.*.;.*.*.$.-.*.*.-.*.*.*.*.*.*.&.*.;.>.>.*.;.*.*.-.*.-.*.&.*.$.$.*.$.*.",
"*.*.*.*.*.;.*.*.*.*.*.-.*.*.*.*.*.*.$.*.*.*.y.i 1.r.q.;.*.;.-.*.*.*.$.&.$.*.*.*.",
"*.*.*.*.*.*.;.*.*.*.*.*.*.*.*.$.*.$.*.*.$.;.,.X o q ,.2.r.w.-.*.;.*.$.;.$.*.*.*.",
"-.*.*.;.;.;.;.*.*.*.*.*.*.*.} O.;.$.$.*.*.%.r 2 R 6 . o 9 0.;.*.;.$.;.$.*.*.*.*.",
"-.*.-.*.;.-.-.;.;.;.*.*.) { } O.*.*.;.*.>.y 2 6 S D D 2 3 <.>.;.$.;.$.;.;.$.@.[ ",
"*.-.*.-.;.;.;.-.;.*.*.*.( } } #.*.*.;.-.y.5 7 A D A 6 7 t 9.;.$.;.;.;.$.;.$.@.' ",
"-.*.*.*.*.-.-.-.;.*.*.*.X.+.$.*.*.;.;.e.,.. A A S A 5 ^ p 9.$.;.;.$.;.;.$.;.$.+.",
"-.*.-.*.-.-.*.*.*.*.$.$.$.*.*.*.;.;.;.e.G O o D R 6 7 ~ 7 i 9.:.;.;.$.$.;.$.*.*.",
"*.-.;.*.-.-.-.-.*.*.$.$.$.*.*.*.*.*.-.-.d.1.O X 6 8 4 5 A e t p u.e.e.;.;.;.;.*.",
"-.*.*.-.-.#.#.-.*.#.*.*.*.*.*.;.-.*.*.-.-.e.1.,.X 1 e j.d.,./ ^ ^ p 6.:.;.$.$.;.",
"-.*.*.*.-.] O.#.$.*.*.*.*.*.;.*.-.;.>.-.-.-.*.r.,.y 5.>.;.t.u.L ^ 1 r r.$.;.;.;.",
"*.*.*.*.-.o.] ] ` *.t.t.t.t.t.t.t.t.t.t.t.e.e.t.t.r.r.t.e.t.f.j.<.w i t.;.$.$.;.",
"-.*.*.*.$.#.} ] X. .a.8.8.8.i.i.i.a.i.i.i.i.i.a.a.a.i.i.a.a.8.j.7.u 0.>.-.*.*.-.",
"-.*.*.$.$.$.#.#.h.@ % ; s s d h h d s d d h d % % ; h h g g = % & > w.-.-.*.-.*.",
"-.*.*.*.*.*.*.*.7.a x.Z.A.A.E.'.(.E.D.E.(._.E.n.l.A.(.].).E.A.b.V , f.-.*.-.*.-.",
"*.*.*.*.*.$.$.3.* v ^.;X;XoX;X.X[.{.oX2X+X+X+X}.|.>X+X`._. X+X{.Z.* z 9.-.*.-.*.",
";.*.*.*.*.*.&.F % S.+X}.T.Y.].:X|.W.U.[.1X>X3XoX}.W.Y.%X|.Q.Y.`.Q.M @ 1.-.-.*.-.",
"-.*.-.*.*.*.5., P {.+X!.T.T.].,X$X/.E.].,X#X).!.U.P.^.<X,X).U.W.).I.b c d.-.*.-.",
";.-.*.-.-.=.= & I.3XXX{.oX;X:X:X:X1X1X>X%X|.W.W.W.{.5X*X*X>X X'.).[.v.% 3.w.-.*.",
"*.*.-.*.w.5.> Y }.3XXX*X:X#X#X|.@X#X&XoXoX.X{.oX;X&X&X#X%X*X*X*X2X XI.z q u.-.-.",
";.-.*.-.d.s @ P.OX;X-X$X:X].~.^.~.~.|.,X#XoX2X/.~.~.~./.=XoX.X&X.X[.!.c.a K >.-.",
"-.*.*.f.x - ! `..X.XoX1X5X1X:X:X:X:X1X5X5X4X5X>X,X&X.XOX3X3X3XOX.X[.}.U.v - K ;.",
"-.*.-.a.  # Z I I I I E T W Q W Q Q W E E E E E Q W R W U T T T I I U A l j , r.",
"*.*.h.g.k k.B N m m m m m m N N m m m m m m m m n m m m m m n n m B m n M.b.< p.",
"*.-.@ a z.L.G.C.G.G.H.H.K.L.L.C.H.J.K.K.K.H.H.H.H.H.H.H.G.G.G.G.J.G.G.C.H.z.< 4.",
"*.*.> - a C V N B N m N V N N N B N N B B B N B B B N N N B B N B B N V j $ x u.",
"*.*.&.u - s - - = - - - - - - - - - - - - - - - - - - - - - - - - - - s & x 4.y.",
"$.*.$.&. .- b.b.x.v.v.v.v.z.c.z.x.z.z.z.x.z.z.x.z.z.z.z.z.z.z.z.x.x.v.j + J >.;.",
";.;.$.$.+.@ B J.L.J.J.J.J.G.J.G.G.G.G.G.J.G.F.F.F.F.F.G.G.G.G.J.H.H.L.n # 5.;.;.",
"$.$.$.;.=.J $ B F.J.G.J.J.J.J.J.J.J.J.J.J.J.J.J.J.J.J.J.J.J.J.G.G.C.m.f e r.-.;.",
"$.O.$.$.*.e.F   n B.m.M.N.N.N.N.N.B.V.V.V.V.V.V.V.V.B.V.N.N.m.m.b.v.s + g.>.*.*.",
"| | $.*.$.>.<.h - = s - s = = = s = = = = = = s = = = = = = = = = : ; 0 f.$.*.*.",
") O.$.;.$.*.*.0.d.s.p.s...1.1.4.6.6.6.6.6.6.6.6.6.1.<.2.1.p.p.p.p.d.d.f.;.*.*.*.",
"} &.*.$.*.*.*.&.*.*.*.*.} O.O.$.*.*.$.;.*.*.*.-.*.+.O.+.O.$.&.&.*.$.&.*.*.*.*.*.",
"&.*.&.$.&.*.$.*.*.*.*.$.$.*.*.*.*.*.*.*.*.*.*.*.-.*.*.*.$.*.$.&.*.$.*.*.*.*.*.-.",
"$.$.*.*.*.*.*.*.*.*.;.*.*.*.*.*.*.*.;.*.*.*.;.*.*.-.*.*.*.*.*.*.$.*.*.*.*.*.*.*.",
"*.*.*.$.$.*.-.-.*.;.$.;.*.*.$.;.*.*.*.*.*.-.*.*.-.*.*.*.*.*.*.$.$.$.*.*.$.-.*.-.",
"*.*.*.&.*.O.#.-.*.$.;.*.*.*.;.$.*.*.;.*.-.*.-.-.*.*.*.;.;.*.*.*.+.#.*.*.$.*.*.-.",
"*.*.*.&.*.] ] o.O.$.$.;.;.$.*.$.;.*.*.*.*.-.*.>.-.*.-.*.$.*.*.*.X.] o.+.#.-.*.*.",
"*.-.-.*.*.o.] ` _ ;.*.;.$.;.*.;.*.*.*.*.*.*.*.*.*.-.*.-.;.*.*.;.-._ ) ` | *.-.-."
};
