/* XPM */
static char *_3a65f071325461bfa017107c367f59fHGFVmmK0iCgaKNz2[] = {
/* columns rows colors chars-per-pixel */
"40 40 161 2 ",
"   c #060606",
".  c #0F0F0E",
"X  c #0A1406",
"o  c #0D1609",
"O  c #0F180B",
"+  c #111A0E",
"@  c #141514",
"#  c #141D11",
"$  c #191F17",
"%  c #1B1B1B",
"&  c #172114",
"*  c #192115",
"=  c #172911",
"-  c #1A2B13",
";  c #1D241A",
":  c #1F281C",
">  c #20261E",
",  c #222A1F",
"<  c #242424",
"1  c #262C23",
"2  c #292D27",
"3  c #2C2D2C",
"4  c #293026",
"5  c #2D332A",
"6  c #30332F",
"7  c #323A2F",
"8  c #333432",
"9  c #353934",
"0  c #393D37",
"q  c #3C3D3C",
"w  c #2C5F17",
"e  c #33442C",
"r  c #2E5020",
"t  c #3F423E",
"y  c #387220",
"u  c #40443F",
"i  c #41762A",
"p  c #4B653F",
"a  c #434443",
"s  c #444A42",
"d  c #494E46",
"f  c #4B4C4B",
"g  c #4D534B",
"h  c #51564F",
"j  c #535453",
"k  c #545953",
"l  c #585E55",
"z  c #5B5C5B",
"x  c #4C6741",
"c  c #57684F",
"v  c #586054",
"b  c #5D635B",
"n  c #60615F",
"m  c #627E56",
"M  c #636363",
"N  c #646A61",
"B  c #6A6A6A",
"V  c #6F726E",
"C  c #727372",
"Z  c #767876",
"A  c #7C7C7C",
"S  c #2A9600",
"D  c #329D00",
"F  c #389F03",
"G  c #389F09",
"H  c #35A300",
"J  c #3CA401",
"K  c #3DA40D",
"L  c #44AA0E",
"P  c #41A613",
"I  c #45AB15",
"U  c #40A518",
"Y  c #45AA19",
"T  c #49AD1C",
"R  c #4BB210",
"E  c #4D8336",
"W  c #4CAF21",
"Q  c #50A22E",
"!  c #4FB123",
"~  c #52B326",
"^  c #54B52B",
"/  c #58B72D",
"(  c #57B82E",
")  c #5BBB2E",
"_  c #55AD30",
"`  c #5BAC36",
"'  c #5BB633",
"]  c #5EBC34",
"[  c #5DB438",
"{  c #5EBC38",
"}  c #61BE2E",
"|  c #60BE36",
" . c #62B53E",
".. c #61BC3A",
"X. c #6ABA3F",
"o. c #69805E",
"O. c #63A247",
"+. c #64AC44",
"@. c #6AAC4E",
"#. c #65B343",
"$. c #68B246",
"%. c #67BD42",
"&. c #69BD44",
"*. c #6DBD4B",
"=. c #71BF4C",
"-. c #6FA459",
";. c #6CA354",
":. c #71B652",
">. c #73BF54",
",. c #759368",
"<. c #7C8D73",
"1. c #7F817F",
"2. c #7FA96D",
"3. c #7DBF60",
"4. c #7DB366",
"5. c #6EC149",
"6. c #6AC143",
"7. c #70C14C",
"8. c #74C253",
"9. c #7CC55D",
"0. c #7FC660",
"q. c #80857D",
"w. c #80AC64",
"e. c #8BBD74",
"r. c #81C265",
"t. c #88C96D",
"y. c #8AC471",
"u. c #92C57C",
"i. c #838383",
"p. c #858585",
"a. c #848484",
"s. c #888788",
"d. c #8D8D8D",
"f. c #8B8B8B",
"g. c #8E918C",
"h. c #929D8C",
"j. c #929292",
"k. c #959595",
"l. c #969696",
"z. c #949694",
"x. c #939393",
"c. c #959894",
"v. c #989997",
"b. c #989998",
"n. c #9B9B9B",
"m. c #999A99",
"M. c #9C9C9C",
"N. c #9F9F9F",
"B. c #9C9C9C",
"V. c #A1A1A1",
"C. c #A3A3A3",
"Z. c #A4A4A4",
"A. c #A6A6A6",
"S. c #A4A4A4",
"D. c #A8ABA7",
"F. c #A8A9A8",
"G. c gray66",
"H. c #AFB4AD",
"J. c #BCBFBA",
"K. c #BEC2BC",
"L. c #C4C8C2",
/* pixels */
"] ] ] ] | | | ] ] ' ] ] { ] ] ] ] } ] ] ] ] ] ] ] { ] { ] { { { ] ' ' ( ) ] ) ] ",
"] ] ] ] ) | ] ] ] ] ] ] ] ] ] ] ] ] ) ] ] ( ( ] { { ] { { ] ] { ] ] ] ) ) ] ] ] ",
"] ] ] ] ] | | ] ] ] ] ] ] ] ] ] ] ] ] ) ] ] ] ] ( { { ] ] ] ] { ' ] ' ) ] ) ] ] ",
"{ ] ] | ] { | ] ] ] ] ] | | Y ! ] } ] ] ] ] ] ] ] { { ( K ^ ] ] | ) | ] ] ] ] ] ",
"] ] { ] ] { | { ..] ] ( D Y P ~ ) } ] ] ] | ] { | T J R K ) ] ] ] | ) | ] ] ] J ",
"{ { ] { ] | { | | { ] ' S I Y / ] | | ] ] ] ] ] | I H L T ( ) ) | ) | ) ] } ( J ",
"] | ] ] ] { { { | ] | ] ~ ^ / ] | | | ] ] ] { ] | ( ~ ( ( ] | ) ] ] ] | ] ) ] ^ ",
"] { { ] { ] { ] | ] ) ) ) } ] ] | | | ] ] { | ] { ] | ] ] ] ] ] ] ] } &.c s 5...",
"{ { ] { ] ] ] { { ] ) ) ) ] ] ] | ] | { ] ] { ] ] ] ] { ] ] ] ] ] ] h.q + 1 ; 0.",
"] ] { ] ] ' $.*.%.] ] ] ) ] | | ] | { { { { ] { ] { ] { ] ] ] ] ] V.1 - v.s # 0.",
"{ ] ] ] ' _ : r [ 6.] ] ] ] { | | { { { { { ] ] { { | ] ] ] ] ] m.4 , d.f.# 4 8.",
"] { ] ] ' [ & 9 + : ,.;. . . . .4.| { { { ] { { ] ] ] { ] ] ] d & 9 l.i.t O e.{ ",
"] ] ] ] 6.y 5 z.a.* + O o o $ O O 9.| { { { 6.0.{ +.b l v g , , c.V.a.j = #.| { ",
"] ] ] ] s : n.M.B.1.d 9 C z.M.A * u.9.0.0.t.V O O + 1 2 1 : t l.Z.a.j : E { ] ] ",
"{ ] ] k + A v.z.v.n.B.v.n.f.B & 1 1 & # # * : M 6 B Z.G.V.k.a.j.f.s * 5 ] { ] { ",
"] ] ] & t z.n.n.n.M.N.M.z.h # 2 t q 9 t a s l.F.l.0 0 Z.Z.V.l.Z 9 O g { ] | ] { ",
"] ] F.+ p.z.v.n.M.V.M.V.z.j z z & 1.B.V.p.a 3 C.G.Z.q B A.S.M.M @ j ' ] { ] { ] ",
"] *.1 5 n.j.v.n.n.n.M.V.M.p.M 2 h S.A.D.C.A.0 Z G.C.z f Z.C.V.B % f ] { ] { ] { ",
"] ..# M l.j.n.1 o 9 d.V.C.C.A 1 Z.Z.A.Z.A.G.l f.A.A.C.Z.C.Z.Z.A < < ..{ ] { ] ] ",
"| | & M j.l.v.+ X o A S.S.V.i.b.Z.Z.A.A.A.G.G.F.G.C.V.C.Z.A.C.a.j % @.] { ] { ] ",
"{ *.- f j.z.B.n + 1 j.M.V.V.A l.Z.A.Z.A.A.A.F.F.1.V s.m.C.Z.V.j.C 3 e %.| { { ] ",
"{ ] = a x.h.v.B.B.C.C.M.M.d.C d.B.S.Z.A.A.C.Z.C.g 4 A s.n.C.N.z.i.f   &.] ] ] { ",
"{ ] + 9 d.z.H.D.V.S.V.n.f.B M 1.j.M.S.C.C.C.V.j.V & t A f.n.N.B.x.B o ;.{ ] { ] ",
"] ] y * 1 d v.K.K.K.L.i.M g 5 0 A j.B.B.B.B.a.M M b ; ; M f.B.M.j.1.< o.] { ] ] ",
"] ] ] Q 1 & ; k q.n + X > u & j B i.d.j.x.1.3 ; 8 a f < 3 M Z f.A Z j % @.| ] { ",
"| ] ] ] ' w v g u $ . $ % @ + 1 B B i.s.s.j 3 4 O X X X @ % t z B A C @ #.| { ] ",
"] ] ] ] ) ^ %.w.$ ; t < # , <.+ t j B Z Z 5 * n 2 % q < M A < 2 t z M % #.] ] { ",
") | ) ) ] ] ) p X 3 @ O s %.| p @ a j B B * % @ < 3 @ l >.e.O 9 s.M A $ +.] ] ] ",
") } } ) ) | ] n X o # m %.] ] *.+ $ j z z # 9 3 3 3 j &.{ 8.: 4 K.J.j.6 &.{ ] | ",
"} ) ) ) ) ] | 8.=.*.=.} ] ] ..] :.+ 9 i.C + <.=.r.y.5.] [ ' 2.+ g f * z *.] ] ] ",
"( ^ ) | ) | ] ] ] ] ] ] | | / / ' $.+ u f o s.] ] ] ' ] ^ ] ] $.` ' ] ] ] ] ] ] ",
"I L ) ] } ] ] ] ] ] ] ] W ~ K T ] ] +.+ $ > &.] ] ^ ! ! H ^ ] ] ] ) ] ] ] ] ] ] ",
"D ^ ] ) ] ] ) ] ] ) ] ) S P K ^ ) ] ] X.O.*.| ] ] U F I P / ] ' ' ] ] ) ) ] ] | ",
"T ( ( ] ] ) ] ] ] ] ] ] T ! ! ( ] ] ] ) ) ] ] ] ] ^ W ^ ~ / / ] ) ] ] ] ] ] ] ] ",
"] ) ] ] ] ] ] ] ] ] ] } ] ] ] ] ] ] ] ] ] ] ] ] ] ] | ] ] ] ] / ] ) ) ] ] ] ] { ",
"' ] ( ] ] ] ] ] ] ) ] ] ] ] ] ] ] | ] ] ] | ] { ] | ] ] ) ] ] ] ) ] ) ] ] ] ] ] ",
"] ] ] ( ] ( ] ] ] ] ] ] ] ] ] ] | ] ] ] ] { ] { { ] ] | ] ] ) ] ] ] ] ] ] ] ] { ",
"] ' ] ] ] ^ ( ' ] ] } ] ] ) } ] ) | ] | ] ] { { { { ] ] ] ] ] ] ^ ^ ( ] ] ] | ] ",
"] ] ] ) ) K Y ! ~ ) ] ] ] ] ] ] ] ] ] ] { ] { { { { ] ] ] ] ) | T K ^ ^ ( ] ] ] ",
"] ] { ] ] ! K D J ] ] ] } ) ] ] ] ] ] ] ] { ] ] ] ] { ] | ] | ] { H S H R ] { { "
};
