/* XPM */
static char *JUQwJTlBJUQwJUJFJUQxJTgyKyVEMCVCQiVEMCVCNSVEMCVCMiVEMCVCRQ__[] = {
/* columns rows colors chars-per-pixel */
"40 40 131 2 ",
"   c #020204",
".  c #0E0D11",
"X  c #151519",
"o  c #1B1B1D",
"O  c #1E1E21",
"+  c #232525",
"@  c #252529",
"#  c #2A2A2C",
"$  c #2E2E32",
"%  c #302D31",
"&  c #303033",
"*  c #37373A",
"=  c #383838",
"-  c #444446",
";  c #464549",
":  c #4B4B4C",
">  c #4E4D51",
",  c #535253",
"<  c #5B5C5D",
"1  c #5E5E61",
"2  c #5E6061",
"3  c #636264",
"4  c #666668",
"5  c #6B6B6C",
"6  c #6D7569",
"7  c #6D6B72",
"8  c #737375",
"9  c #777779",
"0  c #7C7C7D",
"q  c #2B9700",
"w  c #329D00",
"e  c #389F03",
"r  c #389F09",
"t  c #35A300",
"y  c #3CA301",
"u  c #3EA40C",
"i  c #44AA0E",
"p  c #41A616",
"a  c #46AB15",
"s  c #45AA19",
"d  c #49AE1B",
"f  c #4BB210",
"g  c #4CAF21",
"h  c #4FB123",
"j  c #51B325",
"k  c #54B52B",
"l  c #58B72D",
"z  c #57B82D",
"x  c #5BBB2E",
"c  c #58B730",
"v  c #5EBC34",
"b  c #5EBC38",
"n  c #61BE36",
"m  c #61BD3A",
"M  c #6DBE46",
"N  c #6FBF4D",
"B  c #72BE4E",
"V  c #76BE54",
"C  c #79B35F",
"Z  c #77BE59",
"A  c #7BBD5C",
"S  c #7B8E72",
"D  c #7B9271",
"F  c #7E9A73",
"G  c #7BA965",
"H  c #7DAC69",
"J  c #7DB164",
"K  c #7EBB62",
"L  c #809E72",
"P  c #81A56E",
"I  c #81B866",
"U  c #83B46B",
"Y  c #82A272",
"T  c #83AA71",
"R  c #7F7E81",
"E  c #807F82",
"W  c #838384",
"Q  c #868688",
"!  c #89878A",
"~  c #8B8B8C",
"^  c #8F8D90",
"/  c #918F93",
"(  c #939393",
")  c #97979A",
"_  c #99979B",
"`  c #9A9A9B",
"'  c #9C9C9D",
"]  c #9E9E9E",
"[  c #9E9EA1",
"{  c #9F9FA2",
"}  c #A0A0A0",
"|  c gray63",
" . c #A2A2A2",
".. c gray64",
"X. c #A0A0A4",
"o. c #A3A2A5",
"O. c #A4A2A5",
"+. c #A4A2A6",
"@. c #A5A5A5",
"#. c #A7A7A7",
"$. c #A5A5A8",
"%. c #A7A7A9",
"&. c #A8A7A9",
"*. c gray66",
"=. c #A8A8A9",
"-. c #ABABA9",
";. c #A9A9AB",
":. c #AAAAAA",
">. c gray67",
",. c #AAA9AC",
"<. c #ABABAC",
"1. c #ACACAC",
"2. c gray68",
"3. c #ADACAE",
"4. c #AEAEAE",
"5. c #AFAFAF",
"6. c #AFAFB0",
"7. c #AFAEB1",
"8. c gray69",
"9. c #B1B1B1",
"0. c gray70",
"q. c #B4B4B4",
"w. c #B6B4B7",
"e. c #B6B6B6",
"r. c #B9B9B9",
"t. c #BBB9BD",
"y. c #BCBCBC",
"u. c #C9C7C9",
"i. c gray79",
"p. c #CACACC",
"a. c #D4D2D7",
/* pixels */
"v v v v v n v v v v v v v v v v v v v x v v v v c b b v b b v b v v c v x c v v ",
"v v v v v n n v v v v v v v v v v x n x x v x v v b v v v v v v n c v c x n x v ",
"v v v v v v v v v v v v v v v v v v v v v x x v v b v b v b b v c n x x v x x v ",
"v b v n v n n v b v v v v n s h v x v v v v b b v b b c u k v v n c n n v n v m ",
"v v b v v n n n v v v z w s a j x x x n x n b v n d t f u x v v x n x n v x x i ",
"b b v b v m b n n v v v q a s x v n n n n b n v b f t u u b v v n n n l n x x y ",
"v b v v v b b b n n v v j j x x n v n n v v b v n z z z z v v v n x n V U M v j ",
"v v b v b v b v v n x x x b v v n v n n v b v b b b v v v v v x n x M L = = = v ",
"b v v b b c b v b v v z x v v v v n b v b v v b v b b v v b v v N D = = = 8 = v ",
"v b n v b b l v N @ + v x v v n m v v b b b v v b v v b v v v v F = = t.p.Q = m ",
"v v v v l u k z + : + n v v n n n n m b m v v v v n v v v b v H = = %.8.| < = n ",
"b v v v b h u + + < D + T v n x b n m b b v v v v b b v b v * * ( ) :.2 + 6 n n ",
"v v v x v k + + ( S 3 + : U I I A A Z Z V N = = = = = = b K = E ' { 4 + F A v v ",
"v b v x v J * @.X.~ 5 < 3 < , , ; ; = = = = = 5 8 8 7 = = = = ( <.6 + @ b v b b ",
"b v v v K = = :.:.X.) _ _ ~ 0 = = : > , < 5 0 < W Q W 6 , < 9 ] E + + v v b b v ",
"b v x Z 6 = :.q.7.7.4.:.@.-...~ = ( ] < -.7.q.< < q.q.4.] W E ~ + + b v b v v b ",
"n n n = = ( -.8.8.5.8.../ 0 0 * = o.4.<.< < 5.3.< < 4.4.@.~ S , + v v b v v v v ",
"n n V = 3 ] +.8.8.9.-.| E * * = S 4.4.4.7.< 5.-.-.< < 4.:.( 8 @ T b b v v b b n ",
"n x B = ~ X.] ] ' -.-.X.^ E R & ` 4.4.4.3.3.1 <.-.:.< 3.%.' 5 o T v v b n b v v ",
"n n B < ^ -.W = = ( 8.-.X._ L = :.4.4.:.:.:.%.:.:.:.:.:.&.] 3 X F v b v b v v b ",
"v v J < / 7.9 o + W q.5. .' W ( :.:.4.:.@.o.[ [ #.:.:.-.3.] < . F b b v v b b v ",
"n v I ; / w.E + # ( 9.4.| ) W | %.:.:.] ~ ] / _ #.&.:.-.&._ < . D b v b b v v b ",
"v v U # / t._ L ! -.5.-.| _ ( X.:.:.4.( 9 ( L ^ +.&.&.-.:._ : @ & T v b v n v v ",
"v n B = * w.w.w.w.8.-.@.| ~ ( +.@.:.:.= 8 ! * E X.:.3.:.@./ ; # . = A v v b b v ",
"v v b K = 0 t.i.u.y.q.X.! 9 _ +.&.o.` R = 0 = ! ] -.7.&.[ R $ . o X 3 b b v v b ",
"v v l v U * * 9 = = * = : 5 _ +.X.` 9 < = > = = ~ ] +.[ _ 7 X   O O # N b v v b ",
"n n n v v P = = = 3 : @ * 8 ( _ / W > % = = = = * ! ( ( ! 3 ; O O O % N v v b v ",
"x x x v v v x z n M ! : 0 Q ~ ! 0 < - # , A n Y = E / ^ 8 7 * > O # % N b v v b ",
"x x x x x v v v v M 8 : 0 W 0 8 < % % o < x x T * 9 R ^ 1 * * > X + $ Z b v v v ",
"x x x x x v n v v S * ! 0 5 4 , = = # o , n n F * 1 8 R - * a.1 X + = B v v b v ",
"x z x n x v v v v = 5 t.7./ - = = V Z C V v v I * ! 0 W ; * b B I I A v v v v v ",
"f i x x n v v v n * 5 +.~ < = = v x n n v v n = = ! 9 8 * * v l n x n v v n n v ",
"w j v v x v v n v = = = # = = j v v v v v x S = = * = = * = x c v v c v n v x v ",
"d v l x v v v x v V U U G J j c x v x n v n A I K C C J H A c v v x v v x v n v ",
"c v v v v v v v x x n n v v v v v v v v v v v v v v n v v x v l v z v v n v v v ",
"v c v x k v v v n n v x v v v v v n v v v n v v n v v v x v v v v v v x v v v b ",
"v v v c v v v v n x x v x x n v n v n v v b b b v v v v v v v x z v v v v v v v ",
"v v v c c j l v c n n n n v n x z v v v b v v b b m v v v v x n k z c v v v n b ",
"c v b v v i s g j n v x v n v n v v v v v b v b b b v v n v v v d p h j z v v v ",
"v v v v v j r e y v v n x x n x v v n v v v v b b v v b v v v v v r w t f v v v "
};
