/* XPM */
static char *_b41bd1828354524c6dda77a012f36ffVjkva0pFTHyGBPpg[] = {
/* columns rows colors chars-per-pixel */
"40 40 131 2 ",
"   c #020204",
".  c #0E0D11",
"X  c #141414",
"o  c #151519",
"O  c #1B1B1D",
"+  c #1E1F21",
"@  c #242525",
"#  c #252529",
"$  c #2A2A2C",
"%  c #2E2E32",
"&  c #302D31",
"*  c #303033",
"=  c #37373A",
"-  c #383838",
";  c #444446",
":  c #464549",
">  c #4B4B4C",
",  c #4E4D51",
"<  c #535253",
"1  c #5B5C5D",
"2  c #5E5E61",
"3  c #5E6061",
"4  c #636264",
"5  c #666668",
"6  c #6B6B6C",
"7  c #6D7569",
"8  c #6D6B72",
"9  c #737375",
"0  c #777779",
"q  c #7C7C7D",
"w  c #2B9700",
"e  c #329D00",
"r  c #389F03",
"t  c #389F09",
"y  c #35A300",
"u  c #3CA401",
"i  c #3EA40C",
"p  c #44AA0E",
"a  c #42A715",
"s  c #46AB15",
"d  c #45AA19",
"f  c #49AE1B",
"g  c #4BB210",
"h  c #4CAF20",
"j  c #4FB123",
"k  c #52B325",
"l  c #55B52B",
"z  c #58B72D",
"x  c #57B82E",
"c  c #5BBB2E",
"v  c #5EBC34",
"b  c #5FBC39",
"n  c #60BE36",
"m  c #61BD3A",
"M  c #65BD40",
"N  c #6EBE4A",
"B  c #71BF4F",
"V  c #75BE53",
"C  c #79B35F",
"Z  c #77BC59",
"A  c #7BBD5D",
"S  c #7B8E72",
"D  c #7B9271",
"F  c #7E9A73",
"G  c #78AC61",
"H  c #7BB160",
"J  c #7EBB62",
"K  c #809F6F",
"L  c #809E72",
"P  c #81AE6A",
"I  c #81B967",
"U  c #83B46C",
"Y  c #81A372",
"T  c #84AA72",
"R  c #7F7E81",
"E  c #807F82",
"W  c #838384",
"Q  c #868688",
"!  c #89878A",
"~  c #8B8B8C",
"^  c #8F8D90",
"/  c #918F93",
"(  c #939393",
")  c #97979A",
"_  c #99979B",
"`  c #9A9A9B",
"'  c #9C9C9D",
"]  c gray62",
"[  c #9F9F9F",
"{  c #9E9EA1",
"}  c #9F9FA2",
"|  c #A0A0A0",
" . c gray63",
".. c #A2A2A2",
"X. c gray64",
"o. c #A0A0A4",
"O. c #A3A2A5",
"+. c #A4A2A5",
"@. c #A4A2A6",
"#. c #A5A5A5",
"$. c #A5A5A7",
"%. c #A7A7A7",
"&. c #A5A5A8",
"*. c #A7A7A9",
"=. c #A8A7A9",
"-. c gray66",
";. c #A9A9A9",
":. c #ABABA9",
">. c #A9A9AB",
",. c #AAAAAB",
"<. c #AAA9AC",
"1. c #ABABAC",
"2. c #ACACAC",
"3. c gray68",
"4. c #ADACAE",
"5. c #AEAEAE",
"6. c #AFAFAF",
"7. c #AFAEB1",
"8. c gray69",
"9. c #B1B1B1",
"0. c gray70",
"q. c #B4B4B4",
"w. c #B6B4B7",
"e. c #B6B6B6",
"r. c #B9B9B9",
"t. c #BBB9BD",
"y. c #BABBBC",
"u. c #BCBCBC",
"i. c #C9C7C9",
"p. c gray79",
"a. c #D4D2D7",
/* pixels */
"v v v v v n v v v z v v v b v v v v c v v v x v x b v b v b v v z m z z n z n n ",
"v v v n v n n v v v b b v c v v v c c v v v v v v v v b b v v b n n n z z n c c ",
"v v v v v v v v c b v m v v v v n c v v v v v v v v b b v v b v n z n z n n z n ",
"b v v v v n v n m m z n m n d k v n c v v v v v b b b l i l v v n n c v n z n m ",
"b v v b v m v b m z v z e d a k c c v v v v v b v f u s i c v v n z n n n v x p ",
"n v b v m v b n n n n z w d s z n n n v n v b v v s u p f x v c n z n c c c x u ",
"v b B U V b b n n n c n j l l c n n v v v v b b b c l z z c v c n n c n n c c l ",
"v - - - F N b v n m c c c n n c v n n v v b v v v v v v v v v n z n n c n n v v ",
"v - q - - - L V n n c c c n n n v n b b b v v v b v v b v v v v v c n n v c c b ",
"M - Q p.r.- * L n c n c z n n n n v n b b b v n v b b v v @ @ B v v n c v n v v ",
"v - 1 ] 4.#.- - L n c m n c n v b n m b b v v v b b v v v @ > @ v v v v n c n v ",
"b m 7 @ 2 4._ / - * n n n n n c n b b b b v n n v v b T @ D 1 @ @ v v v c n c n ",
"v v A D @ 6 } _ W - I n - - - - - - B V V V A A A I P > @ 4 W ( @ @ v v v b b v ",
"v v v v @ @ 8 =.( - - - - 7 9 0 6 - - - - - : : < < 3 4 1 6 ~ ] #.- U v b v v b ",
"v v v c n @ @ L ` 0 1 < 6 W ! ! 3 0 6 1 < > > - - q ~ ` _ ( ] :.;.- - J v v b v ",
"b v n v c v @ @ ~ E W ` 8.w.w.1 3 0.7.:.1 ` ( - ~ X.:.*.:.8.8.8.0.:.- 7 A b v v ",
"b v v v v v v # , S ~ #.7.7.1 2 :.4.3 1 :.5.$.- - 0 E / $.7.2.7.8.:.( - - n v b ",
"v v b b b v v T # 0 ( ;.4.1 2 :.:.4.3 4.5.5.2.W - - - F ' 2.7.7.8.%.[ 4 - V v v ",
"v b b v v b v Y O 6 ' >.:.3 :.;.;.1 4.:.5.2.4.' - q Q ~ ..4.4.' [ ] ] ~ - B n v ",
"b v v v b v b F X 4 ' ;.;.;.;.;.;.:.4.:.:.4.4.;.- W ) | :.0.( - - W -.( 1 B n v ",
"v v b v v b v F X 1 ' <.:.;.;.*.| | #.*.;.4.;.2.( W ] #.5.q.W + O 9 8.~ 1 A b v ",
"v b v b b v v S . 1 ) ;.<.:.;.&.( / } ^ ' 2.;.;.| Q ( ..:.e.( $ + Q 0.( > I v b ",
"v v v b b m T % # > ) :.:.:.:.#.~ D ( 0 ^ 7.:.;.X.^ ( ..:.5.:.~ W ] u./ $ U v v ",
"b b v v v Z = . $ : ^ &.<.<.=.} ~ - Q 9 - :.;.*.X.( ~ X.#.4.4.w.w.w.8.- - B b v ",
"v v v x v 3 o O . % R } <.<.*.' Q - q - E ] @.=.#.( 0 Q } e.t.i.i.y.q - J b v b ",
"v v v v N * + +   o 8 _ } @.} ^ - - , = 1 0 _ @.#._ 6 > - - = = 0 - - U b v b v ",
"v v v v N % + O # ; 4 ! / / ^ = - - - - & > E / _ ) 9 - $ > 4 - - - T b v v b v ",
"c v c v N % $ + , = 8 8 / ^ R = L n A < $ ; 1 0 ~ ~ Q 0 : ! B m m b v v b v v b ",
"v v c c V * # o , - - 2 ~ E 9 - T n c 1 O & & 1 9 q R E , 9 N v n v v b v b n v ",
"v c c c N - # o 1 a.- ; E 9 3 - L n n < O $ - - < 5 8 q ! = D m v v v v b v v v ",
"c k c c v A I U B n - : Q q ! - P n n Z A V V - = : ~ 9.r.6 = v n v n v v v v v ",
"g p c v v v v v c n - - 9 0 ! - - n n c v v v v - = 1 / @.6 - v c n c v v v v v ",
"e k v c v v v v v v - - - - - - - D n n c n v v v = = & - - - c v v v v v c n n ",
"f v c v c v v c c v A P G C C J I C c n n z v v v k G P G U V c v z v v v v v v ",
"v c v v c v v v v v c v v c v v z n b n n n v v v n m v v v z c v v v v v v v v ",
"v v v c v v v v v v v v v n c n n c b n n c v m v v v v v v v c v z v v v v v v ",
"x v v v x v v b n z n z v n c n n z n z n m b b b b v v v v c v z x v v v v v b ",
"v v v v v j x v z n n n n c n c n n n m v z b m b v v v n v v v l z x v v v v b ",
"x v v x v i d j k n n n v c c n b z v v v b n m b v v v v v v v f i j l x v v v ",
"b b b v v f i e r n z n n n c n n c n v v v z m v b b v v v v n b t e y g v b v "
};
