/* XPM */
static char *f6893987267a4799833036665c9cc62c8fOGeZLnwI3Nqw9j[] = {
/* columns rows colors chars-per-pixel */
"40 40 172 2 ",
"   c #3C2D1A",
".  c #38391D",
"X  c #3C2A25",
"o  c #3B3B24",
"O  c #3D3031",
"+  c #422614",
"@  c #443418",
"#  c #433D19",
"$  c #583D18",
"%  c #473D2E",
"&  c #45303A",
"*  c #2E5C0F",
"=  c #3C4618",
"-  c #3B5311",
";  c #3F521D",
":  c #3D5D1D",
">  c #3D6A1C",
",  c #3E731A",
"<  c #3E4F24",
"1  c #3E5127",
"2  c #444115",
"3  c #41421D",
"4  c #634114",
"5  c #725314",
"6  c #41781F",
"7  c #444B25",
"8  c #5E4322",
"9  c #435722",
"0  c #4C4737",
"q  c #6C5125",
"w  c #715225",
"e  c #665B39",
"r  c #456223",
"t  c #446C24",
"y  c #487825",
"u  c #73673C",
"i  c #71773F",
"p  c #5A5B4A",
"a  c #69755A",
"s  c #747B58",
"d  c #677560",
"f  c #747367",
"g  c #747472",
"h  c #97760F",
"j  c #876919",
"k  c #837218",
"l  c #826D28",
"z  c #8C753B",
"x  c #2A9600",
"c  c #329D00",
"v  c #389F09",
"b  c #3D9B1F",
"n  c #35A300",
"m  c #3CA302",
"M  c #3DA40C",
"N  c #43A908",
"B  c #43A90D",
"V  c #41A614",
"C  c #46AB14",
"Z  c #49AE12",
"A  c #46AA19",
"S  c #49AD1C",
"D  c #4BB210",
"F  c #458424",
"G  c #458C25",
"H  c #51962B",
"J  c #529E2B",
"K  c #4CAF22",
"L  c #49AB28",
"P  c #54A22B",
"I  c #55AD2C",
"U  c #4EB122",
"Y  c #52B326",
"T  c #54B42B",
"R  c #58B72D",
"E  c #57B82D",
"W  c #5BBB2E",
"Q  c #55B231",
"!  c #5BB533",
"~  c #5EBC34",
"^  c #5EBC38",
"/  c #60BD36",
"(  c #61BD39",
")  c #6F8870",
"_  c #9E8406",
"`  c #BA9A04",
"'  c #B79B09",
"]  c #A28C19",
"[  c #9A9034",
"{  c #BCA938",
"}  c #C2AA00",
"|  c #D5B000",
" . c #CBAC18",
".. c #E1CA00",
"X. c #EECE00",
"o. c #F8CE00",
"O. c #F5D400",
"+. c #F9D300",
"@. c #F2DA00",
"#. c #FCDB00",
"$. c #FBDF09",
"%. c #F8DF15",
"&. c #F4E300",
"*. c #FDE100",
"=. c #FAE20B",
"-. c #FEE516",
";. c #FCE914",
":. c #C5C73A",
">. c #F7DE27",
",. c #F3DA36",
"<. c #F5E524",
"1. c #FDE423",
"2. c #F8E52B",
"3. c #F7EB28",
"4. c #F6EE32",
"5. c #FAEE36",
"6. c #F7E63B",
"7. c #F3F03D",
"8. c #878545",
"9. c #919B41",
"0. c #A78D5D",
"q. c #9FA046",
"w. c #A9BC52",
"e. c #88977A",
"r. c #B5A065",
"t. c #BED05A",
"y. c #DED440",
"u. c #C6D159",
"i. c #D9ED59",
"p. c #EFEF42",
"a. c #FFEF43",
"s. c #F6F343",
"d. c #F9F74E",
"f. c #FBE35D",
"g. c #EAFC58",
"h. c #F6FA55",
"j. c #FEE967",
"k. c #EDFF62",
"l. c #F3FB64",
"z. c #FFEE76",
"x. c #798081",
"c. c #88928C",
"v. c #919199",
"b. c #8AAE82",
"n. c #99B58E",
"m. c #A0ACAA",
"M. c #A8B0B1",
"N. c #B5B9B9",
"B. c #CCB387",
"V. c #CDBB9F",
"C. c #D5BF9A",
"Z. c #9FCA94",
"A. c #9BC8A0",
"S. c #ACD9A5",
"D. c #AAEBA6",
"F. c #B0F1AB",
"G. c #BBF5B7",
"H. c #C4EFBF",
"J. c #C5F2BF",
"K. c #B8C6C4",
"L. c #BDD3C6",
"P. c #D4DEDB",
"I. c #CCF4C2",
"U. c #C7F9C3",
"Y. c #D7EED9",
"T. c #DBFAD6",
"R. c #E3FADA",
"E. c #E5EEE9",
"W. c #EAFEE5",
"Q. c #EDFEEC",
"!. c #F2FFEE",
"~. c #F9FFF4",
/* pixels */
"~ ~ ~ ~ ~ / / ~ ~ ~ ~ ~ ~ ^ ~ ~ ~ ~ W ~ ~ ~ ~ ~ ~ ^ ^ ~ ~ ^ ~ ~ ~ ~ W W W ~ W ~ ",
"~ ~ ~ ~ W / / ~ ~ ~ ~ ~ ~ ~ ~ ~ ~ W W ~ W W W ~ ~ ^ ~ ^ ^ ~ ~ ^ ~ ~ ~ W W ~ ~ ~ ",
"~ ~ ~ ~ ~ ~ / ~ ~ ~ ~ ~ ~ ~ ~ ~ / W ~ ~ ~ ~ ~ ~ ~ ^ ^ ~ ^ ~ ^ ^ / ~ W W ~ W ~ ~ ",
"~ ^ ~ / ~ ( / ~ ~ ~ ! ~ ~ ~ A Y / / W ~ ~ ~ ~ ~ ^ ~ ~ T M E ~ ~ ~ ~ ~ ~ ~ ~ ~ ~ ",
"~ ^ ^ ~ ~ ( ( ~ ( ~ ~ ! c A V Y W W ~ ~ ~ ~ ~ ~ ~ U n D M W ~ ~ / W ~ ~ / / W m ",
"^ ~ ~ ^ ( ~ ( ( ( ~ ~ W x C C R / ( ~ ~ / ~ ( ( ( D n M M ~ ~ ~ W / ~ ~ W W W m ",
"~ ~ ~ ~ ~ ^ ( ~ / / / / Y T T ~ / / / ~ / ~ / ( ~ E E E W W W ~ W / / / / W ~ E ",
"~ ^ ^ ~ ^ ~ ^ ~ / / W W W W / ~ / / / ~ ~ ~ ~ ~ ~ ^ ~ ~ ~ ~ ~ ~ / / W W / / ~ W ",
"( ^ ~ ^ ^ ~ ~ ~ ~ ~ E W W ~ ~ / ~ ~ ^ ~ ( ~ ~ ^ ^ ~ ~ ~ ~ ~ ~ ~ W ~ ~ W ~ ~ ~ ~ ",
"~ ~ ( ~ ^ Q ~ ~ ~ ~ ~ ~ ~ ! R / ( ~ ~ ^ ^ ~ ^ ~ ( ~ ~ ( ~ ~ ~ ~ ~ ~ ~ ~ ~ ~ ~ ~ ",
"~ ~ ~ ~ ~ M T E E ~ L F - 2 # . = > G ! ^ ~ ^ ~ ~ ~ ^ ~ ~ ~ ~ ~ W ~ ~ ( ~ ~ ~ ~ ",
"~ ~ ~ ~ ~ U M M m , . q 0.B.C.V.r.j $ < 6 Q ~ ~ ^ ~ ~ ^ ^ ~ ~ W ~ ~ ~ ~ ~ ~ ~ ~ ",
"^ ~ ~ W ~ Y M M * 4 | #.j.z.j.f.6.#.-.{ q . F ! ( ~ ~ ^ ^ ^ ~ ~ ~ ^ ~ ^ ^ ~ ^ ~ ",
"^ ~ ~ W ~ W E L @ ,.#.+.;.&.X.+.+.+.O.*.#.` 4 : E ~ ^ ~ ^ ~ ~ ^ ^ ~ ^ ~ ~ ^ ~ ^ ",
"~ ~ ~ ~ ~ ~ W b $ -.o.<.3.@.+.=.3.@.X.O.#.*.4.l : Q ^ ^ ~ ^ ^ ~ ~ ^ ~ ~ ^ ( ^ ~ ",
"^ ~ ~ ~ ~ W ~ L % 6.5.p.%.o.*.4.<.O.O.$.+.+.#.&.w ; E ^ ~ ~ ^ ~ ^ ~ ~ ~ ~ ~ ~ ^ ",
"^ ~ ~ ~ ^ ~ ~ ~ < z g.l.2.%.7.p.O.X.<.5.$.+.#.#.&.8 F ^ ~ ^ ~ ~ ~ ~ ^ ~ ~ ( ~ ~ ",
"~ ~ ^ ^ ~ ~ ~ ^ Q = e u.p.s.k.h.1.2.s.2.O.#.&.#.#. .# T ^ ~ ~ ^ ^ ~ ~ ^ ^ ~ ~ ~ ",
"~ ^ ~ ~ ^ ~ ^ ~ ~ F & d i q.t.i.7.d.l.4.$.5.p.>.o.#.5 y ^ ~ ^ ~ ~ ^ ^ ~ ~ ~ ^ ^ ",
"^ ~ ^ ~ ^ ~ ~ ~ G . e.Y.N.c.g d 8.9.w.:.y.l.h.a.1.*.} # G Q ^ ~ ^ ~ ~ ^ ~ ^ ~ ~ ",
"~ ~ ^ ~ ~ ^ ~ ^ > O n.W.~.Q.Y.L.M.v.x.f a s 8.[ { ..@.` 4 # J ~ ~ ^ ~ ~ ~ ~ ~ ~ ",
"~ ^ ^ ~ ~ ^ ^ ~ Q t p T.Q.Q.Q.Q.~.!.Q.E.P.K.m.v.g p ' *.} _ 2 Q ~ ^ ^ ~ ~ ~ ( ^ ",
"~ ^ ~ ^ ~ ~ ^ ~ ^ ^ 1 e.G.T.Q.Q.Q.!.!.!.!.~.~.W.I.) k *.] w + L ( ~ ~ ^ ~ ^ ( ~ ",
"^ ~ ~ ~ ~ Q ~ ~ ^ ^ H o d S.U.R.W.Q.!.Q.!.W.W.H.G.x.k *.` o > ! ~ ~ ^ ~ ^ ^ ~ ~ ",
"~ ~ ~ ~ ~ M L T R ^ ~ P r 0 b.n.S.J.J.Y.T.J.G.J.F.A.u #.h r ~ ~ ~ ~ ( ~ ~ ^ ~ ^ ",
"~ ~ ~ ~ ~ K m M B ~ ^ ^ ~ o X o % s Z.D.G.D.D.F.F.e.O h 4 H ~ ~ ^ ~ ~ ^ ( ~ ^ ~ ",
"~ ~ ~ ~ ~ Y Z B D W / ( ~ P P Q J r % p e.e.e.) 0 7 1   y ! ~ ~ ~ ^ ( ~ ~ ~ ^ ~ ",
"W W ~ W W ~ W W W W / / ~ ^ ~ ~ / / I H 9 9 3 9 J E ~ ~ ( ( ~ ~ ~ ^ ~ ~ ~ ^ ~ ( ",
"W / W W W / / W ~ W W W / ! / / / W / W / W W / ~ ~ ~ ~ ^ ~ ^ ~ ~ ~ ~ ( ~ ( ~ ~ ",
"/ W W W W ~ ~ ~ / / W W ~ / / / W / W W W W / W ~ ~ ~ ~ ! ~ ~ ^ / / ~ ~ ( ~ ~ ~ ",
"W Y W W W / ~ ( ~ W / ~ / / R R W / / / W / / ~ ~ ~ ~ W T ~ ~ ~ W / W ~ ~ ~ ~ ~ ",
"D m / W / ~ ~ ~ ~ ~ ~ ~ S Y N U W / W / ~ / W ~ ~ Y Y Y n T ! ~ ~ ~ / ~ ~ ~ / ~ ",
"n Y ~ ~ ~ ~ ~ ~ W ~ ~ W x M M E W ~ ~ W / / ~ ~ ~ C n A M ~ ! W ~ ~ E ~ W ~ ~ ~ ",
"U ~ W W W ~ ~ ~ ~ W ~ W S T Y W ~ ~ ~ ~ / W ~ ~ ~ E U T U W ~ ~ E ~ ~ ~ ~ ~ ~ ~ ",
"~ E W ~ ~ ~ ~ ~ ~ W ~ ~ ~ ~ ~ ~ ~ ~ ~ ~ / / ~ ~ ~ ~ ~ ~ W ~ W ~ E ~ W ~ ~ ~ ~ ~ ",
"~ ~ ~ W E ~ ~ ~ ~ ~ ~ ~ ~ ~ W ~ ~ / ~ ~ ~ ~ ~ ~ ~ ~ ~ ~ ~ ~ ~ W ~ W ~ ~ ~ ~ ~ ^ ",
"~ ~ ~ E ~ ~ ~ ~ ~ W W / ~ ~ ~ ~ ~ ~ ~ ~ ~ ^ ~ ^ ^ ~ ~ ~ ~ ~ ~ ~ ~ E ~ ~ E ^ ~ ~ ",
"~ ~ ~ ~ ~ U E ~ ~ / ~ W W ~ ~ ~ W ~ ~ ~ ~ ~ ^ ^ ^ ^ ~ ~ ~ ~ W ~ E E ~ ! ~ ~ ( ~ ",
"~ ~ Q ~ ~ M M U Y W / / ~ ~ ~ ~ ~ ~ ~ ~ ^ ~ ( ( ^ ^ ~ ~ ~ ~ ~ ~ K M T Y E ~ ~ ~ ",
"~ ~ ^ ~ ~ K M v n ( W / W / W ~ ~ ~ ~ ~ ~ ^ ~ ( ~ ~ ^ ~ ~ ~ ~ / ^ n c n D ~ ^ ^ "
};
