/* XPM */
static char *efd9699ded0848e88bfb635b9392fd42MHyh6eyi4SpFLTac[] = {
/* columns rows colors chars-per-pixel */
"40 40 161 2 ",
"   c #060606",
".  c #0F0F0E",
"X  c #0A1406",
"o  c #0D1609",
"O  c #0F180B",
"+  c #111A0E",
"@  c #141514",
"#  c #141D11",
"$  c #191F17",
"%  c #1B1B1B",
"&  c #172114",
"*  c #192115",
"=  c #172911",
"-  c #1A2B13",
";  c #1D241A",
":  c #1F281C",
">  c #20261E",
",  c #222A1F",
"<  c #242424",
"1  c #262C23",
"2  c #292D27",
"3  c #2C2D2C",
"4  c #293026",
"5  c #2D332A",
"6  c #30332F",
"7  c #323A2F",
"8  c #333432",
"9  c #353934",
"0  c #393D37",
"q  c #3C3D3C",
"w  c #2C5F17",
"e  c #33442C",
"r  c #2E5020",
"t  c #3F423E",
"y  c #387220",
"u  c #40443F",
"i  c #41762A",
"p  c #4B653F",
"a  c #434443",
"s  c #444A42",
"d  c #494E46",
"f  c #4B4C4B",
"g  c #4D534B",
"h  c #51564F",
"j  c #535453",
"k  c #545953",
"l  c #585E55",
"z  c #5B5C5B",
"x  c #4C6741",
"c  c #57684F",
"v  c #586054",
"b  c #5D635B",
"n  c #60615F",
"m  c #627E56",
"M  c #636363",
"N  c #646A61",
"B  c #6A6A6A",
"V  c #6F726E",
"C  c #727372",
"Z  c #767876",
"A  c #7C7C7C",
"S  c #2A9600",
"D  c #329D00",
"F  c #389F03",
"G  c #389F09",
"H  c #35A300",
"J  c #3CA401",
"K  c #3DA40D",
"L  c #44AA0E",
"P  c #41A613",
"I  c #45AB15",
"U  c #40A518",
"Y  c #45AA19",
"T  c #49AD1C",
"R  c #4BB210",
"E  c #4D8336",
"W  c #4CAF21",
"Q  c #50A22E",
"!  c #4FB123",
"~  c #52B326",
"^  c #54B52B",
"/  c #58B72D",
"(  c #57B82E",
")  c #5BBB2E",
"_  c #55AD30",
"`  c #5BAC36",
"'  c #5BB633",
"]  c #5EBC34",
"[  c #5DB438",
"{  c #5EBC38",
"}  c #61BE2E",
"|  c #60BE36",
" . c #62B53E",
".. c #61BC3A",
"X. c #6ABA3F",
"o. c #69805E",
"O. c #63A247",
"+. c #64AC44",
"@. c #6AAC4E",
"#. c #65B343",
"$. c #68B246",
"%. c #67BD42",
"&. c #69BD44",
"*. c #6DBD4B",
"=. c #71BF4C",
"-. c #6FA459",
";. c #6CA354",
":. c #71B652",
">. c #73BF54",
",. c #759368",
"<. c #7C8D73",
"1. c #7F817F",
"2. c #7FA96D",
"3. c #7DBF60",
"4. c #7DB366",
"5. c #6EC149",
"6. c #6AC143",
"7. c #70C14C",
"8. c #74C253",
"9. c #7CC55D",
"0. c #7FC660",
"q. c #80857D",
"w. c #80AC64",
"e. c #8BBD74",
"r. c #81C265",
"t. c #88C96D",
"y. c #8AC471",
"u. c #92C57C",
"i. c #838383",
"p. c #858585",
"a. c #848484",
"s. c #888788",
"d. c #8D8D8D",
"f. c #8B8B8B",
"g. c #8E918C",
"h. c #929D8C",
"j. c #929292",
"k. c #959595",
"l. c #969696",
"z. c #949694",
"x. c #939393",
"c. c #959894",
"v. c #989997",
"b. c #989998",
"n. c #9B9B9B",
"m. c #999A99",
"M. c #9C9C9C",
"N. c #9F9F9F",
"B. c #9C9C9C",
"V. c #A1A1A1",
"C. c #A3A3A3",
"Z. c #A4A4A4",
"A. c #A6A6A6",
"S. c #A4A4A4",
"D. c #A8ABA7",
"F. c #A8A9A8",
"G. c gray66",
"H. c #AFB4AD",
"J. c #BCBFBA",
"K. c #BEC2BC",
"L. c #C4C8C2",
/* pixels */
"] ] ] ) ) ] ] ' ] { ] ] { ] [ ] ] ( ] ] ] ] ] } ] ] | | ] ] ] ] | ] | ] ] ] ] ] ",
"] ] ] ) ) ] ( ] { ] { ] ] { ] ] ] ] ( ] ) ] ] ] ] ] ] ] ] ] ] ] ] ] | ] ] ] ] ] ",
") ] ] ) ] ] ] ] { ] { { { ] ] ] ] ( ] ] ) ] } ] ) | | ] ] ] ] ] ] | ] ] ] ] ] ] ",
"| ] ] ] ] ] ] ] ] ] ^ K ( ....{ { { ] ] } ] ] ] ~ K | | ] ] ] ] | | | { ] ] ] ] ",
"J ] ) | ] ] ] ] ) } ( L I J T ] ] { ] ] ] | ] ] ( K K D ( ] ] ] ] | | ] ] ] { ] ",
"J ) } ) ) ] ] ) | ) ) R L J Y { { ] ] { ] ] | ] ( T T S ] ] ] { { { { { { { ] { ",
"^ ] ] ] ] | ] ] ] ) ) ( ( ^ ) ] ] ] { ] ] ] | ] ) ( ( ~ ] ] { { ] { { ] ] { ] ] ",
"..5.s c X.] ) ] ] ] ] ] ] | ] { { ] ] { { | | ] ] ] ] ) ) ) { ] { ] { ] { ] { ] ",
"9.> 1 + 0 h.] ] ] ] ] ] | ] { ] { ] { ] { ] | | ] ] ] ) ) ) | | ' ] ] { ] [ ] { ",
"r.+ d c.; 4 S.] ) | ] ] ] { ] { ] { ] { { | ] ] | ] ] ] | ) ) 6.*.@.( [ { ] { ] ",
"8.2 + f.d., 1 b.] ] ] ] { ] ] { ] { { { | | { { | { ] ] ] ] 6.[ w > _ ] ] ] { ] ",
"| e.+ u i.b.7 & d ] ] ] ] { ] ] { ] { { { ..] 4. . .{ #.-.,.; + 9 & [ ] ] ] ] { ",
"| ] #.- j a.C.k., , g l l n +.] 0.%.] ] | | 9.+ + # o o O + * p.l.5 i 6.] ] ] { ",
"] | { E 1 f a.C.k.t : 1 1 1 # O + C t.0.9.9.u.& A N.k.V 9 d 1.B.B.b.; s ) ] ] ] ",
"] { ] ] 6 & s d.j.a.x.C.G.Z.M 6 M : & # + & 1 1 & B d.n.b.B.b.l.l.k.A + k ] ] ] ",
"{ ] { ] ] g + 8 Z v.V.S.Z.0 q b.F.v.a s t 9 q a 1 # g k.N.N.N.B.B.b.z.t & ] ] ] ",
"] { { ] { ] j . M N.C.Z.B t Z.A.Z.3 a a.C.B.A & z z k z.V.N.N.N.B.b.k.p.+ F.] ] ",
"{ ] ] { ] { f % B V.V.Z.f z Z.A.Z 0 F.Z.F.A.Z.j 4 M p.M.N.N.b.b.B.b.j.b.5 1 *.{ ",
"| ] { ] { ..3 < A Z.Z.Z.Z.Z.A.A.f.z A.A.A.A.Z.Z.1 A S.V.V.d.0 O 1 b.x.b.M # ..| ",
"] { ] ] { @.% f a.C.Z.Z.Z.V.C.F.F.F.A.A.A.A.Z.Z.l.i.N.Z.Z.A X X + b.b.d.M * | ] ",
"] { ] { %.e 6 C j.V.A.C.b.s.V A A.A.Z.A.A.Z.A.C.v.A N.N.V.j.1 O b N.k.d.f - 5.] ",
"{ ] ] ] #.  f i.l.B.C.n.s.A 2 g Z.Z.Z.Z.A.Z.C.N.d.C j.n.B.V.C.B.N.v.z.h.a = { ] ",
"| ] { ] ;.o B x.m.V.n.s.1.0 # C j.V.C.Z.Z.C.B.x.1.n B f.b.V.C.V.D.H.z.g.9 + ] { ",
"] { ] { o.< A z.B.B.d.M : ; M M M a.n.B.B.n.x.A 0 5 h n a.L.K.K.K.B.s 2 * y ] ] ",
"{ ] ] *.@ g A A s.A n 5 < f a 8 ; 3 1.x.j.d.1.B j * t > X O N 1.k ; * 1 Q ] ] | ",
"] { {  .% C A B z t % @ X X X + 2 3 j s.s.a.B B < + # % % . * t g v w ] ] ] ) ] ",
"{ { ] #.% M z q 2 < A M < 9 % < M $ 5 Z Z B j a # <.1 # < t ; # w.X.~ ] ] ] ] ] ",
"] ] { #.% A M a.9 + e.8.l % 3 < @ $ * B B j a + x ] %.u X # 3 X p ) ) ] ( ] ) ] ",
"{ ] ] #.8 j.J.K.4 ; >.[ &.j 3 3 3 9 # z z j $ + *.{ ] 6.V & O X N ] ] ) } ) ) ) ",
"] ] { 6.z ; g f @ w.] ] ] 7.y.r.=.<.+ C a.9 + :.] ] ] ] } 6.*.*.8.] ] ) } ) ) ) ",
"{ ] ] ] ] ' [ ` #.] ] ( ) ] | ] ] s.+ f t o +.] ) / | | | ) ] ] ] ] | ) ) ) ~ ) ",
"] ] ] ] ] ] ] ] ) ] ^ F ~ W ~ ] ] $.> $ + +.] ] W K ~ T ] ] ] ] | ) | ) | | K T ",
"] ] ] ] ] ( ] ] ] ( ( K Y D Y ] ] ] *.O. .| | ) ~ K P S ) | ] ] ] ] ) ] ] ] ~ D ",
"] ] ] | ] ] ] ( ) ] ] ! ^ ! ^ ] ] ] | ] ) ] ) ] / ~ ~ T ' ) ] } ] ] | ) ( ] ( ! ",
"] | ] ] ] ] ] ] ] ] ] ] ] ] ] ] ] ] ] ] | ] ] ] ] ] ] ] | | | ) ) ] ] ) ] ( ] ( ",
"] ] | ) ] ( ) ] ( ] ] ) ] ] ] ] { ] { ] ] | ] ] ] ] ] ] ) | ' | | ] | ' ] ( ] ] ",
"] ] ] ] ] ] ] ( ] ) | ] ] ] ] { { { ] { ] ] | ) ] ] ) | | ) ] ] | ) ' ] ] ] ' { ",
"] | ] ] ] ) ( ^ ] | ) ] ] ] { { { ] { ] ] | ] ] ] ) ] ] ) | ] ] ' ( ~ ) ) ] ' ] ",
"] { ] ) ! ! P T ] ] ] ] ] { ] { ..] ] ] ] ] ) | ] ) ] | | } ] ! W Y K ] ] ] ' ] ",
"] | ] R H D G { ] ] { ] ] ] { ] ] | ] ] ] | | ] ] ] | ) ' | ] F F K W | ] ] ] ] "
};
