/* XPM */
static char *JUQwJUJBJUQwJUJFJUQxJTgyKyVEMCVCMiVEMCVCMiVEMCVCNSVEMSU4MCVEMSU4NQ__[] = {
/* columns rows colors chars-per-pixel */
"40 40 155 2 ",
"   c #060B04",
".  c #0F0D0F",
"X  c #071303",
"o  c #17191B",
"O  c #15240E",
"+  c #1C2B14",
"@  c #293F1F",
"#  c #252323",
"$  c #292626",
"%  c #272628",
"&  c #2D2A2A",
"*  c #312E2D",
"=  c #32322E",
"-  c #35392E",
";  c #343233",
":  c #393737",
">  c #3A3738",
",  c #3C3B3B",
"<  c #403F3F",
"1  c #304927",
"2  c #3C5E29",
"3  c #3C4633",
"4  c #404E34",
"5  c #4A693B",
"6  c #4B7237",
"7  c #4E773D",
"8  c #4C7D38",
"9  c #3E3E41",
"0  c #444343",
"q  c #484646",
"w  c #474549",
"e  c #49474A",
"r  c #4D4C4D",
"t  c #445043",
"y  c #4E4F51",
"u  c #4F5255",
"i  c #535253",
"p  c #585455",
"a  c #57575B",
"s  c #5B5B5B",
"d  c #547545",
"f  c #576750",
"g  c #596651",
"h  c #616B5E",
"j  c #5F5F60",
"k  c #646364",
"l  c #656C61",
"z  c #6A676A",
"x  c #6B6A6B",
"c  c #71716E",
"v  c #6D6E71",
"b  c #706D71",
"n  c #6F7172",
"m  c #727273",
"M  c #767972",
"N  c #777779",
"B  c #79767A",
"V  c #76787A",
"C  c #7B7B7C",
"Z  c #329D00",
"A  c #389F09",
"S  c #35A300",
"D  c #3CA404",
"F  c #3EA40C",
"G  c #45AB08",
"H  c #41A514",
"J  c #49AC14",
"K  c #46AA19",
"L  c #49AD1B",
"P  c #4BB210",
"I  c #4D8536",
"U  c #518C33",
"Y  c #4D9031",
"T  c #519333",
"R  c #549D33",
"E  c #5A9A3D",
"W  c #4DAF22",
"Q  c #4EB022",
"!  c #52B326",
"~  c #54B42B",
"^  c #57B82D",
"/  c #5BBB2E",
"(  c #55A236",
")  c #5BAC37",
"_  c #5CAB3A",
"`  c #5BB435",
"'  c #5EBC34",
"]  c #5FB63A",
"[  c #5EBC38",
"{  c #60A03E",
"}  c #61BD37",
"|  c #60B13F",
" . c #62BD3A",
".. c #578140",
"X. c #588742",
"o. c #5B8D44",
"O. c #628D4B",
"+. c #679651",
"@. c #679852",
"#. c #6A9C53",
"$. c #5DA341",
"%. c #60A541",
"&. c #64A546",
"*. c #70B74D",
"=. c #72BB4F",
"-. c #6CA255",
";. c #6EAC53",
":. c #71AC56",
">. c #6EB150",
",. c #71B354",
"<. c #6E8662",
"1. c #788570",
"2. c #7F8A79",
"3. c #7F7E80",
"4. c #817F82",
"5. c #7F8384",
"6. c #848485",
"7. c #8A8684",
"8. c #868788",
"9. c #8A8988",
"0. c #8C8B8C",
"q. c #908E8F",
"w. c #8D918C",
"e. c #8F8E91",
"r. c #918E93",
"t. c #949394",
"y. c #999694",
"u. c #969498",
"i. c #99969A",
"p. c #9C9C9C",
"a. c #A29D9D",
"s. c #A0A09F",
"d. c #9E9DA0",
"f. c #A19FA2",
"g. c #9EA2A0",
"h. c #A2A2A2",
"j. c #A3A2A5",
"k. c #A6A6A6",
"l. c #A6A9A6",
"z. c #A6A6A9",
"x. c #A8A7A9",
"c. c #A9A7AB",
"v. c #A7A9AA",
"b. c #AAABAB",
"n. c #ADADAE",
"m. c #AEAFB0",
"M. c #B2AEB2",
"N. c gray69",
"B. c #B2B1B4",
"V. c gray71",
"C. c #B5B3B8",
"Z. c #BBBBBC",
"A. c #BFBFC0",
"S. c #CCCCCE",
"D. c #D3D3D4",
/* pixels */
"' ' ' } / } ' ' ' ' ' ' ' ' ' ' ' ' ' ' ' ' ' ' ' ` ' [ ' ' [ ' ' ' ' / / ' / ' ",
"' ' ' ' } ' ' ' ' ' ' ' ' ' ' ' ' ' ' / / ' / ' ' ' [ ' [ ' ' [ ' ' / ' / / ' ' ",
"' ' } ' ' ' } ' ' ' ' ' ' ' ' / ' ' / ' ' ' ' ' ` [ ' [ ' ' [ ' ' / / / ' / ' ' ",
"' [ ' ' } } } } ' ' ' ' } ' L Q / / ' ' ' ' ' [ [ [ [ ' F ^ ' ' } ' ' } ' ' ' [ ",
"' [ ' ' } ' ' [ [ ' ' ' & & & & =.' ' ' ' ' [ ' :.& & & X.^ ' ' / } ' ' ' ' / D ",
"[ ' [ [ ' } } [ [ ' ' / & , N.& = =.,.>.:.,.,.;.* * V.& X.^ / ' ' } / } ' / / D ",
"' ' [ ' ' [ [ } ' } ' ' & p D.Z.& & & * & & & * p D.S.& O./ ' ' } / } ' ' / / / ",
"} [ ' [ ' [ ' ' } } / / & i V.t.& & b.b.N.z.p.z ; p p.= #.' } ' / } / } / } ' ' ",
"' } ' [ [ [ ' ^ [ / ' / & i h.t.& n.M.n.m.n.m.d.m a 0.* -.} } ' ' ' ' ' ' ' ' ' ",
"[ ' [ ' [ ` ' ' ' ' ' ' & r p.0.& l.k.b.z.c.z.p.N s 4.; -.} } / ' / / ' ' / ' ' ",
"' ' ' ' ' F ~ ^ / / ' ' & e w.5.& h.h.z.f.f.c.d.N p 4.* #.' ' / ' ' ' ' } ' / } ",
"' ' ' ' [ W F S S / ' ' & , 0.V & h.p.z.j.u.i.6.4 9 B ; :.} ' } ' ' ' ' / } } ' ",
"' [ ' ' / ^ L F D ' ' ^ & , w.V & i.p.s.f.e.< & ; v 8.; :.} ] ' ' ' [ ' [ ' ' ' ",
"[ ' ' / / / ^ ^ ^ / ' ' & , 8.5.N t.q.t.r.6.C 3.C 3.V & ;.' ' ' } [ ' [ ' [ [ ' ",
"' ' ' ' ' / ' ' / ' ' ' & 9 w.5.& & & & 6.3.m C 4.8.6.& :.' ' [ [ ' ' [ [ ' ' } ",
"[ ' ' ' ' / ' ' ' ' ' ' & w t.5.& C 9.C & C B e.0.e.d.& :.[ ' ' ' ' [ ' [ ' } [ ",
"' ' [ ' ' ' ' ' ' ' ' ] & q i.0.& C b.b.& & 3.e.0.r.f.> #.' ' [ ' [ ' [ ' ' } ' ",
"[ [ ' ' [ [ ' [ [ ' ' ~ = i p.t.t.& l.V.d.& V e.0.t.f.u ; E ' ' ' [ [ ' ' [ [ ' ",
"' ' [ ' ' ' [ ' ' ' ' R : x p.s.i.& h.V.j.& n 8.8.e.u.s % U ` [ [ ' ' [ [ ' ' ' ",
"' [ ' [ ' [ ' [ ' ' / 8 < c k.h.p.7.& Z.c.& & 9.u.d.f.v % 6 ) [ ' [ ' ' ' [ [ } ",
"[ ' ' [ ' [ ' ' ' [ ) ..$ 7.v.k.k.t.& A.n.k & d.c.B.m.r.$ $ T ` [ ' ' [ ' ' [ ' ",
"' [ [ ' [ ' [ ' [ ' _ $ & i.l.b.b.b.& N.v.x & j.M.M.C.z.3.g $ ] ' [ [ ' [ [ ' [ ",
"' ' ' [ [ ' [ ' ' [ $.$ 2.s.l.n.v.b.& t.b.z & z.B.B.M.c.0.h $ ` ' ' [ ' ' [ ' ' ",
"[ ' ' ' ` ^ ` ' [ [ $ <.9.s.n.b.b.n.& N v.n ; u.f.j.d.u.5.l $ ) [ [ ' ' [ ' [ ' ",
"[ ' ' ' ' F W ~ ` | $ 1.w.a.n.l.q.& & r 8.B q x p r p k k s $ E ' [ [ [ ' [ ' [ ",
"' ' ' ' ' Q F F H %.$ 2.y.s.l.g.t.* s r x b y ; q j k s r t $ ( ' [ ' ' [ ' [ ' ",
"' ' ' ' / ^ P F J { & 2.y.a.k.s.a.& & > s y e 9 q k v z i $ I ` [ ' ' ' ' ' [ ' ",
"/ ' / / / / / / } ( $ $ 7.y.s.p.s.p.; * r r 0 y a 0 0 , $ $ Y ` } [ ' ' ' [ ' [ ",
"/ } } / / ' ' ' ` { O.$ M 9.p.t.p.p.c ; e y e y , ; : o o 2 ( ' } } ' } ' ' ' } ",
"/ / / / ' ' ' ' ' ` E $ $ N 0.8.3.C s & i y 9 9 = r q . $ Y ` ' ' ' } ' [ ' ' ' ",
"/ ! / / / ' ' [ ' ` ) o.f $ V n k k i ; & & & & & j & + & ` ' ' ' ' ' ' ' ' ' ' ",
"P G / ' ' ' ' } ' ' ' ) d & $ z n C & & @ >.-.O & & & & & ~ ^ ' ' ' / ' ' ' ' } ",
"S ! ' ' ' / ' ' ' ' / ' R = & k x : k 1 #.} ' +.5 7 o.K F ' ' ' / ' ^ ' ' ' ' } ",
"Q / ' / ' ' ' ' ' ' ' ' L &.3 c x > * >.} / ' ' ' ! Q ! ! / ` / ^ ' ' ' ' / / } ",
"^ ' ' / ' / ' ' ' ' ' ' ' =.3 * x k ; ;.' ' ' ' } ' } ' / ' ' ' / ' ' ' ' ' ' [ ",
"' ' ^ ' ' ' / ' / ' ' / '  .I - & & & @.' ' } ' ' ' ' ' ' ' / / ' / ' ' ' ' ' ' ",
"' ' ' ' ' ^ ' ' / } ' } ' }  .6   # X -.[ ' [ [ [ ' ' } ' ' / ' / ' ' ' ' ' ' [ ",
"' ' ' ^ [ W ^ [ ' } / / ' ' }  .*.,.,.' ' [ ' } [ ' ' ' / ' ' ' ~ ~ ' ` / ' ' [ ",
"' ' ' ' ' F F W ! ' } ' / } ' ' ' ' ' ' ' [ ' } [ [ ' ' } } ' ' L F ~ ! ^ ' [ ' ",
"' ' ' ' ' Q F A S ' / ' } / } ' } ' ' ' ' ' ' } [ ' ' [ ' ' ' ' [ S Z S P ' [ [ "
};
