/* XPM */
static char *_0b3088388fb4cd7d8b756223fda7261oV5dwOBJZEQLXNGO[] = {
/* columns rows colors chars-per-pixel */
"40 40 167 2 ",
"   c #0F0D0F",
".  c #060B04",
"X  c #071303",
"o  c #17191B",
"O  c #201C1C",
"+  c #15240E",
"@  c #1C2B14",
"#  c #293F1F",
"$  c #252323",
"%  c #292626",
"&  c #272628",
"*  c #2D2A2A",
"=  c #312E2D",
"-  c #32322E",
";  c #35392E",
":  c #343233",
">  c #393737",
",  c #3A3738",
"<  c #3C3B3B",
"1  c #403F3F",
"2  c #304927",
"3  c #3C5E29",
"4  c #3C4633",
"5  c #404E34",
"6  c #4B7237",
"7  c #4E773D",
"8  c #4C7D38",
"9  c #4A693B",
"0  c #3E3E41",
"q  c #444343",
"w  c #484646",
"e  c #474549",
"r  c #49474B",
"t  c #4D4C4D",
"y  c #50494A",
"u  c #445043",
"i  c #4E4F51",
"p  c #4F5255",
"a  c #535253",
"s  c #585455",
"d  c #57575B",
"f  c #5B5B5B",
"g  c #547545",
"h  c #576750",
"j  c #596651",
"k  c #616B5E",
"l  c #5F5F60",
"z  c #646364",
"x  c #6A676A",
"c  c #6B6A6B",
"v  c #656C61",
"b  c #71716E",
"n  c #6D6E71",
"m  c #706D71",
"M  c #6F7172",
"N  c #727273",
"B  c #777779",
"V  c #79767A",
"C  c #76787A",
"Z  c #7B7B7C",
"A  c #767972",
"S  c #329D00",
"D  c #389F03",
"F  c #389F09",
"G  c #3CA404",
"H  c #3EA40C",
"J  c #35A300",
"K  c #40A508",
"L  c #45AB08",
"P  c #41A514",
"I  c #49AC14",
"U  c #40A518",
"Y  c #46AA19",
"T  c #49AD1B",
"R  c #4BB210",
"E  c #4D8536",
"W  c #54803F",
"Q  c #578B3F",
"!  c #518C33",
"~  c #4D9031",
"^  c #519333",
"/  c #549D33",
"(  c #5B9A3D",
")  c #4DAF22",
"_  c #4EB022",
"`  c #52B326",
"'  c #54B42B",
"]  c #57B82D",
"[  c #5BBB2E",
"{  c #55A236",
"}  c #5BAC37",
"|  c #5CAB3A",
" . c #5BB435",
".. c #5EBC34",
"X. c #5FB63A",
"o. c #5EBC38",
"O. c #60A03E",
"+. c #61BD37",
"@. c #60B13F",
"#. c #62BD3A",
"$. c #578140",
"%. c #588742",
"&. c #5B8D44",
"*. c #628D4B",
"=. c #679651",
"-. c #679852",
";. c #6A9C53",
":. c #5DA341",
">. c #60A541",
",. c #64A646",
"<. c #70B74D",
"1. c #72BB4F",
"2. c #6CA255",
"3. c #6EAC53",
"4. c #71AC56",
"5. c #6EB150",
"6. c #71B354",
"7. c #6E8662",
"8. c #788570",
"9. c #7F8A79",
"0. c #7F7E80",
"q. c #817F82",
"w. c #7F8384",
"e. c #848485",
"r. c #8A8685",
"t. c #888B86",
"y. c #868788",
"u. c #8B8789",
"i. c #8C8B8C",
"p. c #908E8F",
"a. c #8D918C",
"s. c #8F8E91",
"d. c #918E93",
"f. c #949394",
"g. c #999695",
"h. c #969498",
"j. c #99969A",
"k. c #9C9C9C",
"l. c #A29D9D",
"z. c #A0A09F",
"x. c #9E9DA0",
"c. c #A19FA2",
"v. c #A19FA1",
"b. c #A09DA1",
"n. c #9EA2A0",
"m. c #A1A1A1",
"M. c gray64",
"N. c #A3A2A5",
"B. c #A6A6A6",
"V. c #A3A2A4",
"C. c #A6A9A6",
"Z. c #A6A6A9",
"A. c #A8A7A9",
"S. c #A9A7AB",
"D. c #A7A9AA",
"F. c #A8A8A9",
"G. c #ADADAE",
"H. c #AAABAB",
"J. c #AEAFB0",
"K. c #B2AEB2",
"L. c #AFB1B2",
"P. c gray69",
"I. c #B3B3B4",
"U. c #B9B8BA",
"Y. c #BFBFC0",
"T. c #CCCCCE",
"R. c #D4D4D5",
/* pixels */
"......] [ ............o...o.o... .[ ....[ ..........+.........[ ................",
"......[ [ ............+........... .[ ..........[ ......+.+.......+.+...........",
"[ ........] ......+.+.+.+.o.o.....[ ..[ [ ..[ ..[ +...........................+.",
"+.....[ ..........+.' P  .+.o.o.o.o.o...........` R +.+.......+.o.o.o.....+.....",
"K [ [ +.[ ....[ +.[ [ Q * * * 4.o...o.........5.* * * * [ ....o...o.o.o...o.o...",
"G [ [ [ ......+.[ [ [ W * I.= = 5.5.4.3.4.6.1.* * G.4 * [ ....o.o...o.o.o.....o.",
"` +.+.+.[ ..[ +.[ +...*.= T.T.s : & * * * * * * U.R.d * ....o.o...o.o.....o.o...",
"..+.[ ..+.+.[ ........=.= l.f : x x.Z.L.G.H.* * f.U.a * [ ..........o.o.........",
"....+.[ ..............3.- p.f m x.G.J.J.G.G.P.* f.M.a * [ [ ..+.o.o.o...o.o.o.o.",
"..[ ..+.........[ +...2.- q.f V k.H.Z.Z.H.B.H.* i.k.t * ..[ ......] ' o.....o.o.",
"....[ +...[ ....[ +.+.2.= 0.f V x.S.b.c.B.l.m.* w.a.w * ......[ ] ' H o.o.o...o.",
"+.+.[ ..........+.[ ..4.: V < 1 e.j.h.N.B.z.m.* C a.< * ....[ G H U ) ] ] ......",
"....o.....o.o.+.......4.: e.n : * 1 s.b.b.k.k.* C i., * ....[ G H T ] [ [ ..o...",
"......o.o.......+...o.4.* C 0.0.0.Z e.f.f.d.s.B Z y.< * ......] ] [ [ ........o.",
"..o.........+.o...o...4.* e.y.0.0.N 0.e.* * * * e.i.q * ......] [ [ [ ..........",
"..+...o.o...o.........4.* x.s.i.s.C C * 9.y.Z * y.f.u & ..........[ ............",
"....o.....+.o.....o.o.;., N.d.s.s.0.* * H.C.Z * i.g.e * @...............o.....o.",
"o.o...+...o...o.o.o./ : p b.f.i.s.B * j.I.C.* f.g.k.p =  .........o.o...o.....o.",
"..o.o...o.+....... .! % f h.d.y.y.M * N.U.z.* k.z.k.c , / ......o.....o.........",
"o.....o.....o.....| 6 % n b.b.h.i.* * S.U.* e.k.m.B.b 5 8  .......o...........o.",
"....o...o.....o. .^ % % d.L.K.S.x.* z G.Y.* f.B.B.H.u.% 8  .....o.....o...o...o.",
"..o...o...o.o...X.% j 0.Z.I.K.K.N.* x Z.G.* D.H.Z.F.k.% % @.o.....o.o.......o...",
"......o...+..... .& v i.Z.I.I.P.S.* x J.h.* H.C.H.H.z.9.% :.X...o...o...o.......",
"o.o...+...o... .| & v w.j.x.m.z.h.: n Z.C * G.G.H.H.z.y.7.& X.......] o.....+...",
"..o...o...+...o.( % f z z s t s c w Z u.t * * d.F.H.M.a.8.% @.] ] _ H ..........",
"o...o...o...o.../ % u t f z l r : i n c t f * g.z.C.z.g.9.% O.P G G _ ....o.....",
"....o...o...o... .E & a c b z w 1 r y d , * * k.n.B.l.f.9.% >.I L R [ [ ] o...[ ",
"..o...o...o...o. .~ & & < q 1 d p q t t : - k.n.z.n.f.t.% % O.+.[ [ [ ....[ ....",
"..+...+...o.......{ 3 O o > : 1 i r i r , m x.k.j.g.r.A % *.| +.........[ ..[ [ ",
"........o.....o... .~ $   e t = < 0 i a & j Z 0.e.u.V % % ( }  .+.+...[ [ [ [ ..",
"o...............[ .. .* @ * k * * * * * : a z z N Z % h Q @.+.+.+.[ +.[ [ [ ` ] ",
"....[ ............ .' * * * * * + ;.4.# * * B b x % % g }  .+.[ +.+.[ +.+.[ H Y ",
"................] ..] H T &.8 9 -.....;.2 z > x z * - ^ ......+.....[ ....] ' S ",
"..+.......] ] ....] [ ` ] _ ` ..........5.* , c b 4 ,.T [ +...[ [ +.........] ) ",
"......[ ........] ] ....o.....o...+.....5.: z c = 5 <...+.[ [ ..[ ..[ ..[ ] ..[ ",
"............[ [ ................+.o.o...=.* = * ; 8 #...[ +.+...+...+.[ ....[  .",
"+...........] ....[ ........o.o.o...o.o.2.X $ X 6 #.[ +...[ ....+.[ ....[ ......",
"..+.....[ [ ] ' ..............o.o.o.......6.6.1.#.+.+.[ ..+.[ ....] _ ...... ...",
"+.....[ ` _ H ) ............o.o.+.o...........[ +.....+.[ [ +.` ) P H ..] ......",
"+.....R J S H o.........o...o.....o.............+...[ +.+...+.D D H ` ........o."
};
