/* XPM */
static char *a2e0212600ba4f8d987dac62a8ba0016yAG1f79vA3FtXiTF[] = {
/* columns rows colors chars-per-pixel */
"40 40 230 2 ",
"   c #0B0A01",
".  c #110603",
"X  c #150B02",
"o  c #001C01",
"O  c #0E1009",
"+  c #001C0B",
"@  c #1C1304",
"#  c #1B1707",
"$  c #111012",
"%  c #241D05",
"&  c #251D0F",
"*  c #201611",
"=  c #002301",
"-  c #002B01",
";  c #112E0D",
":  c #003303",
">  c #003C02",
",  c #003709",
"<  c #003D0A",
"1  c #11340A",
"2  c #062112",
"3  c #19231A",
"4  c #0B3414",
"5  c #2A2406",
"6  c #2A270A",
"7  c #362D17",
"8  c #2D3F16",
"9  c #2C2626",
"0  c #312E2A",
"q  c #2F3F2A",
"w  c #3B3D37",
"e  c #004204",
"r  c #004C03",
"t  c #00430B",
"y  c #0C4209",
"u  c #004C0C",
"i  c #1E4500",
"p  c #005402",
"a  c #0B5200",
"s  c #005D03",
"d  c #00520B",
"f  c #005D0A",
"g  c #1A5902",
"h  c #004B10",
"j  c #005513",
"k  c #005E12",
"l  c #384616",
"z  c #006403",
"x  c #006C01",
"c  c #00640C",
"v  c #006A0C",
"b  c #007401",
"n  c #007B01",
"m  c #007409",
"M  c #007B0B",
"N  c #006214",
"B  c #006A13",
"V  c #00641A",
"C  c #006A1D",
"Z  c #007213",
"A  c #007B13",
"S  c #01731A",
"D  c #007D1B",
"F  c #0C7A18",
"G  c #216314",
"H  c #1F4A28",
"J  c #354F2D",
"K  c #37562B",
"L  c #1F6628",
"P  c #0A7725",
"I  c #2D6625",
"U  c #367628",
"Y  c #396434",
"T  c #466928",
"R  c #457A2C",
"E  c #456A37",
"W  c #4A7A3A",
"Q  c #3B5441",
"!  c #547A4E",
"~  c #018404",
"^  c #008A01",
"/  c #028A0E",
"(  c #15830D",
")  c #009200",
"_  c #009C00",
"`  c #00980E",
"'  c #179602",
"]  c #008313",
"[  c #008B15",
"{  c #00841B",
"}  c #008C1B",
"|  c #1F8A13",
" . c #009212",
".. c #009B11",
"X. c #00961A",
"o. c #009B1B",
"O. c #179A18",
"+. c #2B9500",
"@. c #28940B",
"#. c #329D00",
"$. c #389F03",
"%. c #369C0A",
"&. c #268A19",
"*. c #2F9016",
"=. c #37981A",
"-. c #01A200",
";. c #00AB03",
":. c #02A70C",
">. c #16A609",
",. c #00B400",
"<. c #0AB600",
"1. c #18B602",
"2. c #00A915",
"3. c #0CA21B",
"4. c #01AB1B",
"5. c #1BA21F",
"6. c #02B717",
"7. c #15B418",
"8. c #35A300",
"9. c #3CA402",
"0. c #3EA40C",
"q. c #28BD03",
"w. c #3ABB04",
"e. c #39B909",
"r. c #33B317",
"t. c #008925",
"y. c #009322",
"u. c #009A26",
"i. c #3A8B2A",
"p. c #269729",
"a. c #3B9E25",
"s. c #3B9F33",
"d. c #00AB21",
"f. c #00A229",
"g. c #00AD2A",
"h. c #00B521",
"j. c #08B527",
"k. c #12B228",
"l. c #05B832",
"z. c #36A92A",
"x. c #2CBC2A",
"c. c #3AB324",
"v. c #39B72A",
"b. c #3EB931",
"n. c #4E9D00",
"m. c #42AA05",
"M. c #43A90D",
"N. c #51A803",
"B. c #49BA06",
"V. c #50BB00",
"C. c #54B309",
"Z. c #41A615",
"A. c #46AB14",
"S. c #49AE12",
"D. c #40A518",
"F. c #46AA19",
"G. c #4AAD1C",
"H. c #53AB18",
"J. c #48B516",
"K. c #65B616",
"L. c #50922D",
"P. c #498E32",
"I. c #4C9736",
"U. c #549D35",
"Y. c #53913A",
"T. c #589C3A",
"R. c #4CAE22",
"E. c #4AA82C",
"W. c #52AB2D",
"Q. c #4EB122",
"!. c #4BBB29",
"~. c #52B325",
"^. c #59BC23",
"/. c #54B52B",
"(. c #58B72D",
"). c #55BC2C",
"_. c #5BBB2E",
"`. c #4DAA33",
"'. c #56AA36",
"]. c #59AE34",
"[. c #5DA73E",
"{. c #5EAB3D",
"}. c #5BB635",
"|. c #5EBC34",
" X c #5DB339",
".X c #5EBB38",
"XX c #61A122",
"oX c #66BE23",
"OX c #75BF26",
"+X c #60BE36",
"@X c #61BD39",
"#X c #00C400",
"$X c #00C50C",
"%X c #12C300",
"&X c #10D014",
"*X c #2EC00C",
"=X c #39C404",
"-X c #2CC61B",
";X c #36CA19",
":X c #3BD81B",
">X c #0FC020",
",X c #12C32D",
"<X c #00C432",
"1X c #25C72B",
"2X c #3ACF2A",
"3X c #5AC402",
"4X c #4ED00C",
"5X c #49CA19",
"6X c #5AC915",
"7X c #49D319",
"8X c #64C504",
"9X c #67CD00",
"0X c #67D400",
"qX c #67C819",
"wX c #67D81D",
"eX c #47CA28",
"rX c #57D628",
"tX c #4CCD3A",
"yX c #68C328",
"uX c #7ACE21",
"iX c #66D426",
"pX c #77D42A",
"aX c #76CE31",
"sX c #53E128",
"dX c #578643",
"fX c #5E9B41",
"gX c #84DB2B",
"hX c #85DD33",
"jX c #89E120",
"kX c #8FE536",
/* pixels */
"|.|.+X|.|.+X+X|.|.|.|.|..X|.|.|.|._.|.|.|.|.|.|.|.|.}.@X}.}.+X|.|.|.|.(._.|.|.|.",
"|.|.|.|._.+X+X|.|.|.|.|.|.|.|.|.|.|.|._.(.|.(.|.}..X@X@X+X+X+X|.|.|.(.|.(.|._.|.",
"|.|.+X|.|.|.|.|.|.|.|.|.|.|.|.|.|.|.|._.|.|.|.|.|..X.X@X}.+X|.|.|.}.+X(.|._.|.|.",
".X|.|.|.|.@X|.+X|.|.|.|.|.|.F.~.yX|.yX|.|..X|.|.|..XtX(.D./.|.|.+X(.+X+X|.|.|.+X",
".X.X.XyX+X.X.X+X@X|.|.(.#.F.F.~..X).+X+X+X}.|..X|.G.9.S.M.(.+X_.+X+X_._.|.|.|.9.",
".X.X.X.X|.@X+X.X@X|.|.|.+.F.F.].dXdXY.T.{.{.|.|.+XA.8.A.A._._.+X_.|.+X|._.|.(.n.",
"|..X.X|.|..X.X.X+X|.|.|.~.W.U.XXK.n.H.C.K.N.yXoXW.]./././.|.+XoX_.+X|.|.|.|.(.~.",
"|.|.|..X|..X|.|.|.+X_._.I.R.B.V.3XB.V.9.B.m.8X9X3XG.Y.|.|.|.|.|.+X+X_.+X_.|.+X+X",
".X|..XtX.X|.|.|.|.|.I.z.J.4Xq.=X4X4XwXiX3XqXqXgXwX1.>.U.+X(.+X+X+X+X+X+X+X(.+X(.",
"|..X+X@X|.}.}.}.`.p.v.rX5XeX-X-X;X:X7X5XqX9X3XB.=X#X4XjXOX+X}.oX(.+X(.+X+X+X+X}.",
"|.|.}.}.|.0.W.U.z.sXrXrXiX5Xw.e.*X,.1.8XuXpXwXq.%X&X7XiX0X~.}.|.(.+X|.|.+X_.+X+X",
"+X+X}.+X|.R.Z.R tXtX2XrXiXqXpXaXC.B.6XhXjXpX6X=X-X$X#Xq.<.w.#.E.+X+X|.|._.+X+X(.",
"|.|.|._.|.~.F.=.k u.j.1XeXuXkXkXgXkXiXC.6XB.w.q.-X,.,.,.;.;.>.+.*.}.+X.X+X+X+X@X",
"|.|.|.|.|.}.}./.P g.1X<X1X;X;X2X7.,.:.;.-.:.6.6.6.>X;.6.;.-.) ' -.p.+X|.}.+X+X@X",
"|.|.|._.|.|._.p.y.l.<X<X<X<Xh.j.4...q.).).r.h.2.2.4.:.` o.) ^ ^ ) [ }.+X@X}.|.tX",
"+X|.|.+X_.|.z.u.{ } y.f.o.X.u.u.g.).oXoXoXqX:.u.4.` o.n [ / n ~ x F +X}.+X+X.X|.",
"+X}.+X@X|.s.X./ } { {  .X.f.y.u.c.6X(.F.>.4.} y.u.} S p s c x n t P..X.X|..X|..X",
"+X+X@XtX|.P v [ y.g.g.v.yXb.x.v.c.!.z.c.3.[ t.{ y.D r : p m z z H ! }..X.X|..X|.",
"}.+X|.|.|.U d g.,X1Xk.f.7...f.k.d.k.u.4.O.} D S m f > > c c s z c Q dX|.|.|..X|.",
"+X}..X|..XfXC h.h.4.d. .) @.5.5. .A A { y.*.=.A f u > f f f p s x c Y |.|..X|..X",
"+X|.|.@X.X.XV ^ M ] y.} ' G.=.@.+.b ~ / A F *.S e < t f r > u p s s L |.|..X|..X",
"|.|..X|.|..Xi.e x M Z n ] &.| ( &.&.M N > 1 e > > - > u j p s r > , E |.|.|..X|.",
"|..X|.|..X|.+Xm _ [ A ] v c c d s c S j > : > < e < - : u d r > = 4 [.}..XtX.X.X",
"|..X}.|.|./.|.W.^ x b Z V p r d Z @.%.=.*.f u t t t > - : - = = o I +X+X@X@X.X.X",
"|..X|.|.|.0.W./.a.p p r e e r m ( | &.*.@.x S j , e e - o o o o - '..X|..X|..X.X",
"|.|.|.|.}.G.9.0.0.E.r e > : s x N v F m B p c B r r d t - o o K }.@X.X.X.X|.yX.X",
"|.+X|.|.|.!.S.m.S._.E.h - - t y r k N f c r r B > - , = = 2 Y .X.X|.|..X|..X|.|.",
"_.+X_._.|.}.yX_._._.|.|.G = 1 5 1 l 1 : e > : o ; R R I K W .X|.|.|..X|..X|..X|.",
"|.|.|._.|.|.|.|.|._.yX|.}.U ; 5 5 7 @ o - : 3 q ]..X|.|..X|..X.X|.|.+X.X.X|.|.|.",
"_.).yX|._.|.|.|.|.|.|.^.|.|.E 6 6 @   + 2 $ E  X|.|.|.|.|.|.|.|.|.+X|.|.|.@X|.|.",
").~._.yX_.|.|.|.|.|.|.|.|.|.T.6 5   J Y.'.}.|.|.|.|.|.|./.).|.|.+X_.|.+X|.|.|.+X",
"F.0._.|.|.|.|.|.|.|.|.|.G.~.T 5 @ l }.|.|._.|.|.|./.R.~.$./.|.|.|.+X_.|.|.|.|.|.",
"#.~.|.|._.|.|.|._.|.|.|.+.L.7 % . [.+X+X+X_.+X}.+XZ.$.F.0.}.(.|.|.|.|.|.+X|._.|.",
"G.|.|._.|.|.|.|.+X|.|. XL.R l @ X [.(.+X+X+X_.+X|.~.G./.~.|.|.(.|.(._.|._.|.+X+X",
"|.|.).|.|._.|.|._.|. X&.-._ g X * dX|.+X(.+X}.+X|.|.+X+X|._.}._.|.|.|.|.|.+X|.|.",
"(.(.|.|.|.|.|.|.+X|.I.) ^ n 1 X # w {.}.+X+X+X}.|.|.|.+X+X_.|.|._.).|.|.|.|.|..X",
"|.|.|.}.|.).|.|..X.XK a i 8 & X @ O Y.@X.X|..X.X@X|.+X|.|.|.(.|.|.)..X|.|.|.|.|.",
"|.|.|.|.|.~./.|.|.@XQ # % 7 * & % $ Y.}.|..X|..X.X|.|.|.|.|.|.|././.).|.|.|.@X|.",
"}.|.).|.|.0.F.R.R.|.+XdXw 0 9 9 0 ! |.+X|..X|.@X.X|..X|.+X_.+X|.G.0.Q.~./.|.|..X",
"|..X.X|.|.Q.0.#.$.@X@X@X@X[.fXT.@X|.|.|.|.|..X|.|..X|..X|.|.+X|..X0.#.8.S.+X@X|."
};
